<mxfile host="app.diagrams.net" modified="2024-04-02T07:01:34.556Z" agent="Mozilla/5.0 (Macintosh; Intel Mac OS X 10_15_7) AppleWebKit/537.36 (KHTML, like Gecko) Chrome/122.0.0.0 Safari/537.36" etag="xsz6QFt71d-PGTycq7DD" version="24.0.7" type="device">
  <diagram name="Page-1" id="2cc2dc42-3aac-f2a9-1cec-7a8b7cbee084">
    <mxGraphModel dx="1434" dy="786" grid="1" gridSize="10" guides="1" tooltips="1" connect="1" arrows="1" fold="1" page="1" pageScale="1" pageWidth="1100" pageHeight="850" background="none" math="0" shadow="0">
      <root>
        <mxCell id="0" />
        <mxCell id="1" parent="0" />
        <mxCell id="7026571954dc6520-1" value="" style="strokeWidth=1;shadow=0;dashed=0;align=center;html=1;shape=mxgraph.mockup.containers.browserWindow;rSize=0;strokeColor=#666666;mainText=,;recursiveResize=0;rounded=0;labelBackgroundColor=none;fontFamily=Verdana;fontSize=12" parent="1" vertex="1">
          <mxGeometry x="30" y="20" width="550" height="420" as="geometry" />
        </mxCell>
        <mxCell id="7026571954dc6520-2" value="Crisp.nz" style="strokeWidth=1;shadow=0;dashed=0;align=center;html=1;shape=mxgraph.mockup.containers.anchor;fontSize=17;fontColor=#666666;align=left;" parent="7026571954dc6520-1" vertex="1">
          <mxGeometry x="60" y="12" width="110" height="26" as="geometry" />
        </mxCell>
        <mxCell id="7026571954dc6520-3" value="https://www.crisp.nz/recruitment/profiles" style="strokeWidth=1;shadow=0;dashed=0;align=center;html=1;shape=mxgraph.mockup.containers.anchor;rSize=0;fontSize=17;fontColor=#666666;align=left;" parent="7026571954dc6520-1" vertex="1">
          <mxGeometry x="130" y="60" width="250" height="26" as="geometry" />
        </mxCell>
        <mxCell id="7026571954dc6520-6" value="Name" style="text;html=1;points=[];align=left;verticalAlign=top;spacingTop=-4;fontSize=15;fontFamily=Verdana" parent="7026571954dc6520-1" vertex="1">
          <mxGeometry x="50" y="140" width="170" height="30" as="geometry" />
        </mxCell>
        <mxCell id="7026571954dc6520-18" value="Save" style="strokeWidth=1;shadow=0;dashed=0;align=center;html=1;shape=mxgraph.mockup.buttons.button;strokeColor=#666666;mainText=;buttonStyle=round;fontSize=17;fontStyle=0;fillColor=none;whiteSpace=wrap;rounded=0;labelBackgroundColor=none;" parent="7026571954dc6520-1" vertex="1">
          <mxGeometry x="330" y="360" width="190" height="30" as="geometry" />
        </mxCell>
        <mxCell id="gmk9-GeeckrXVe3l32---1" value="enter name here" style="strokeWidth=1;shadow=0;dashed=0;align=center;html=1;shape=mxgraph.mockup.text.textBox;fontColor=#666666;align=left;fontSize=17;spacingLeft=4;spacingTop=-3;whiteSpace=wrap;strokeColor=#666666;mainText=" parent="7026571954dc6520-1" vertex="1">
          <mxGeometry x="170" y="140" width="200" height="30" as="geometry" />
        </mxCell>
        <mxCell id="gmk9-GeeckrXVe3l32---2" value="Lastname" style="text;html=1;points=[];align=left;verticalAlign=top;spacingTop=-4;fontSize=15;fontFamily=Verdana" parent="7026571954dc6520-1" vertex="1">
          <mxGeometry x="50" y="190" width="170" height="30" as="geometry" />
        </mxCell>
        <mxCell id="gmk9-GeeckrXVe3l32---3" value="enter lastname here" style="strokeWidth=1;shadow=0;dashed=0;align=center;html=1;shape=mxgraph.mockup.text.textBox;fontColor=#666666;align=left;fontSize=17;spacingLeft=4;spacingTop=-3;whiteSpace=wrap;strokeColor=#666666;mainText=" parent="7026571954dc6520-1" vertex="1">
          <mxGeometry x="170" y="190" width="200" height="30" as="geometry" />
        </mxCell>
        <mxCell id="gmk9-GeeckrXVe3l32---12" value="Organisation" style="text;html=1;points=[];align=left;verticalAlign=top;spacingTop=-4;fontSize=15;fontFamily=Verdana" parent="7026571954dc6520-1" vertex="1">
          <mxGeometry x="50" y="240" width="170" height="30" as="geometry" />
        </mxCell>
        <mxCell id="gmk9-GeeckrXVe3l32---13" value="enter organisation here" style="strokeWidth=1;shadow=0;dashed=0;align=center;html=1;shape=mxgraph.mockup.text.textBox;fontColor=#666666;align=left;fontSize=17;spacingLeft=4;spacingTop=-3;whiteSpace=wrap;strokeColor=#666666;mainText=" parent="7026571954dc6520-1" vertex="1">
          <mxGeometry x="170" y="240" width="200" height="30" as="geometry" />
        </mxCell>
        <mxCell id="gmk9-GeeckrXVe3l32---127" value="email" style="text;html=1;points=[];align=left;verticalAlign=top;spacingTop=-4;fontSize=15;fontFamily=Verdana" parent="7026571954dc6520-1" vertex="1">
          <mxGeometry x="50" y="290" width="170" height="30" as="geometry" />
        </mxCell>
        <mxCell id="gmk9-GeeckrXVe3l32---128" value="read only email here" style="strokeWidth=1;shadow=0;dashed=0;align=center;html=1;shape=mxgraph.mockup.text.textBox;fontColor=#666666;align=left;fontSize=17;spacingLeft=4;spacingTop=-3;whiteSpace=wrap;strokeColor=#666666;mainText=" parent="7026571954dc6520-1" vertex="1">
          <mxGeometry x="170" y="290" width="200" height="30" as="geometry" />
        </mxCell>
        <mxCell id="gmk9-GeeckrXVe3l32---14" value="" style="strokeWidth=1;shadow=0;dashed=0;align=center;html=1;shape=mxgraph.mockup.containers.browserWindow;rSize=0;strokeColor=#666666;mainText=,;recursiveResize=0;rounded=0;labelBackgroundColor=none;fontFamily=Verdana;fontSize=12" parent="1" vertex="1">
          <mxGeometry x="30" y="480" width="740" height="440" as="geometry" />
        </mxCell>
        <mxCell id="gmk9-GeeckrXVe3l32---15" value="Crisp.nz" style="strokeWidth=1;shadow=0;dashed=0;align=center;html=1;shape=mxgraph.mockup.containers.anchor;fontSize=17;fontColor=#666666;align=left;" parent="gmk9-GeeckrXVe3l32---14" vertex="1">
          <mxGeometry x="60" y="12" width="110" height="26" as="geometry" />
        </mxCell>
        <mxCell id="gmk9-GeeckrXVe3l32---16" value="https://www.crisp.nz/recruitment/jobs" style="strokeWidth=1;shadow=0;dashed=0;align=center;html=1;shape=mxgraph.mockup.containers.anchor;rSize=0;fontSize=17;fontColor=#666666;align=left;" parent="gmk9-GeeckrXVe3l32---14" vertex="1">
          <mxGeometry x="130" y="60" width="250" height="26" as="geometry" />
        </mxCell>
        <mxCell id="gmk9-GeeckrXVe3l32---17" value="Category" style="text;html=1;points=[];align=left;verticalAlign=top;spacingTop=-4;fontSize=15;fontFamily=Verdana" parent="gmk9-GeeckrXVe3l32---14" vertex="1">
          <mxGeometry x="90" y="140" width="170" height="30" as="geometry" />
        </mxCell>
        <mxCell id="gmk9-GeeckrXVe3l32---18" value="Save" style="strokeWidth=1;shadow=0;dashed=0;align=center;html=1;shape=mxgraph.mockup.buttons.button;strokeColor=#666666;mainText=;buttonStyle=round;fontSize=17;fontStyle=0;fillColor=none;whiteSpace=wrap;rounded=0;labelBackgroundColor=none;" parent="gmk9-GeeckrXVe3l32---14" vertex="1">
          <mxGeometry x="510" y="380" width="190" height="30" as="geometry" />
        </mxCell>
        <mxCell id="gmk9-GeeckrXVe3l32---20" value="Job Description" style="text;html=1;points=[];align=left;verticalAlign=top;spacingTop=-4;fontSize=15;fontFamily=Verdana" parent="gmk9-GeeckrXVe3l32---14" vertex="1">
          <mxGeometry x="50" y="256" width="170" height="30" as="geometry" />
        </mxCell>
        <mxCell id="gmk9-GeeckrXVe3l32---21" value="enter job description here" style="strokeWidth=1;shadow=0;dashed=0;align=center;html=1;shape=mxgraph.mockup.text.textBox;fontColor=#666666;align=left;fontSize=17;spacingLeft=4;spacingTop=-3;whiteSpace=wrap;strokeColor=#666666;mainText=" parent="gmk9-GeeckrXVe3l32---14" vertex="1">
          <mxGeometry x="190" y="236" width="380" height="70" as="geometry" />
        </mxCell>
        <mxCell id="gmk9-GeeckrXVe3l32---22" value="Salary&amp;nbsp; &amp;nbsp;$" style="text;html=1;points=[];align=left;verticalAlign=top;spacingTop=-4;fontSize=15;fontFamily=Verdana" parent="gmk9-GeeckrXVe3l32---14" vertex="1">
          <mxGeometry x="110" y="326" width="170" height="30" as="geometry" />
        </mxCell>
        <mxCell id="gmk9-GeeckrXVe3l32---23" value="enter annual salary here" style="strokeWidth=1;shadow=0;dashed=0;align=center;html=1;shape=mxgraph.mockup.text.textBox;fontColor=#666666;align=left;fontSize=17;spacingLeft=4;spacingTop=-3;whiteSpace=wrap;strokeColor=#666666;mainText=" parent="gmk9-GeeckrXVe3l32---14" vertex="1">
          <mxGeometry x="190" y="326" width="200" height="30" as="geometry" />
        </mxCell>
        <mxCell id="gmk9-GeeckrXVe3l32---24" value="Select 1 of 4 Categories" style="strokeWidth=1;shadow=0;dashed=0;align=center;html=1;shape=mxgraph.mockup.forms.comboBox;strokeColor=#999999;fillColor=#ddeeff;align=left;fillColor2=#aaddff;mainText=;fontColor=#666666;fontSize=17;spacingLeft=3;" parent="gmk9-GeeckrXVe3l32---14" vertex="1">
          <mxGeometry x="190" y="140" width="260" height="30" as="geometry" />
        </mxCell>
        <mxCell id="gmk9-GeeckrXVe3l32---25" value="Job Title" style="text;html=1;points=[];align=left;verticalAlign=top;spacingTop=-4;fontSize=15;fontFamily=Verdana" parent="gmk9-GeeckrXVe3l32---14" vertex="1">
          <mxGeometry x="90" y="190" width="170" height="30" as="geometry" />
        </mxCell>
        <mxCell id="gmk9-GeeckrXVe3l32---26" value="enter job title here" style="strokeWidth=1;shadow=0;dashed=0;align=center;html=1;shape=mxgraph.mockup.text.textBox;fontColor=#666666;align=left;fontSize=17;spacingLeft=4;spacingTop=-3;whiteSpace=wrap;strokeColor=#666666;mainText=" parent="gmk9-GeeckrXVe3l32---14" vertex="1">
          <mxGeometry x="190" y="190" width="200" height="30" as="geometry" />
        </mxCell>
        <mxCell id="gmk9-GeeckrXVe3l32---183" value="Cancel" style="strokeWidth=1;shadow=0;dashed=0;align=center;html=1;shape=mxgraph.mockup.buttons.button;strokeColor=#666666;mainText=;buttonStyle=round;fontSize=17;fontStyle=0;fillColor=none;whiteSpace=wrap;rounded=0;labelBackgroundColor=none;" parent="gmk9-GeeckrXVe3l32---14" vertex="1">
          <mxGeometry x="300" y="380" width="190" height="30" as="geometry" />
        </mxCell>
        <mxCell id="gmk9-GeeckrXVe3l32---27" value="" style="strokeWidth=1;shadow=0;dashed=0;align=center;html=1;shape=mxgraph.mockup.containers.browserWindow;rSize=0;strokeColor=#666666;mainText=,;recursiveResize=0;rounded=0;labelBackgroundColor=none;fontFamily=Verdana;fontSize=12" parent="1" vertex="1">
          <mxGeometry x="30" y="975" width="520" height="785" as="geometry" />
        </mxCell>
        <mxCell id="gmk9-GeeckrXVe3l32---28" value="Crisp.nz" style="strokeWidth=1;shadow=0;dashed=0;align=center;html=1;shape=mxgraph.mockup.containers.anchor;fontSize=17;fontColor=#666666;align=left;" parent="gmk9-GeeckrXVe3l32---27" vertex="1">
          <mxGeometry x="60" y="12" width="110" height="26" as="geometry" />
        </mxCell>
        <mxCell id="gmk9-GeeckrXVe3l32---29" value="https://www.crisp.nz/jobseeker/profiles" style="strokeWidth=1;shadow=0;dashed=0;align=center;html=1;shape=mxgraph.mockup.containers.anchor;rSize=0;fontSize=17;fontColor=#666666;align=left;" parent="gmk9-GeeckrXVe3l32---27" vertex="1">
          <mxGeometry x="130" y="60" width="250" height="26" as="geometry" />
        </mxCell>
        <mxCell id="gmk9-GeeckrXVe3l32---39" value="Name" style="text;html=1;points=[];align=left;verticalAlign=top;spacingTop=-4;fontSize=15;fontFamily=Verdana" parent="gmk9-GeeckrXVe3l32---27" vertex="1">
          <mxGeometry x="90" y="125" width="170" height="30" as="geometry" />
        </mxCell>
        <mxCell id="gmk9-GeeckrXVe3l32---40" value="enter name here" style="strokeWidth=1;shadow=0;dashed=0;align=center;html=1;shape=mxgraph.mockup.text.textBox;fontColor=#666666;align=left;fontSize=17;spacingLeft=4;spacingTop=-3;whiteSpace=wrap;strokeColor=#666666;mainText=" parent="gmk9-GeeckrXVe3l32---27" vertex="1">
          <mxGeometry x="190" y="125" width="200" height="30" as="geometry" />
        </mxCell>
        <mxCell id="gmk9-GeeckrXVe3l32---41" value="Lastname" style="text;html=1;points=[];align=left;verticalAlign=top;spacingTop=-4;fontSize=15;fontFamily=Verdana" parent="gmk9-GeeckrXVe3l32---27" vertex="1">
          <mxGeometry x="70" y="175" width="170" height="30" as="geometry" />
        </mxCell>
        <mxCell id="gmk9-GeeckrXVe3l32---42" value="enter lastname here" style="strokeWidth=1;shadow=0;dashed=0;align=center;html=1;shape=mxgraph.mockup.text.textBox;fontColor=#666666;align=left;fontSize=17;spacingLeft=4;spacingTop=-3;whiteSpace=wrap;strokeColor=#666666;mainText=" parent="gmk9-GeeckrXVe3l32---27" vertex="1">
          <mxGeometry x="190" y="175" width="200" height="30" as="geometry" />
        </mxCell>
        <mxCell id="gmk9-GeeckrXVe3l32---43" value="DOB" style="text;html=1;points=[];align=left;verticalAlign=top;spacingTop=-4;fontSize=15;fontFamily=Verdana" parent="gmk9-GeeckrXVe3l32---27" vertex="1">
          <mxGeometry x="90" y="350" width="170" height="30" as="geometry" />
        </mxCell>
        <mxCell id="gmk9-GeeckrXVe3l32---46" value="" style="strokeWidth=1;shadow=0;dashed=0;align=center;html=1;shape=mxgraph.mockup.forms.rrect;rSize=5;strokeColor=#999999;fillColor=#ffffff;" parent="gmk9-GeeckrXVe3l32---27" vertex="1">
          <mxGeometry x="187" y="280" width="160" height="175" as="geometry" />
        </mxCell>
        <mxCell id="gmk9-GeeckrXVe3l32---47" value="October 2014" style="strokeWidth=1;shadow=0;dashed=0;align=center;html=1;shape=mxgraph.mockup.forms.anchor;fontColor=#999999;" parent="gmk9-GeeckrXVe3l32---46" vertex="1">
          <mxGeometry x="30" y="8" width="100" height="20" as="geometry" />
        </mxCell>
        <mxCell id="gmk9-GeeckrXVe3l32---48" value="&lt;" style="strokeWidth=1;shadow=0;dashed=0;align=center;html=1;shape=mxgraph.mockup.forms.rrect;rSize=4;strokeColor=#999999;fontColor=#008cff;fontSize=19;fontStyle=1;" parent="gmk9-GeeckrXVe3l32---46" vertex="1">
          <mxGeometry x="8" y="8" width="25" height="20" as="geometry" />
        </mxCell>
        <mxCell id="gmk9-GeeckrXVe3l32---49" value="&gt;" style="strokeWidth=1;shadow=0;dashed=0;align=center;html=1;shape=mxgraph.mockup.forms.rrect;rSize=4;strokeColor=#999999;fontColor=#008cff;fontSize=19;fontStyle=1;" parent="gmk9-GeeckrXVe3l32---46" vertex="1">
          <mxGeometry x="127" y="8" width="25" height="20" as="geometry" />
        </mxCell>
        <mxCell id="gmk9-GeeckrXVe3l32---50" value="Mo" style="strokeWidth=1;shadow=0;dashed=0;align=center;html=1;shape=mxgraph.mockup.forms.anchor;fontColor=#999999;" parent="gmk9-GeeckrXVe3l32---46" vertex="1">
          <mxGeometry x="10" y="28" width="20" height="20" as="geometry" />
        </mxCell>
        <mxCell id="gmk9-GeeckrXVe3l32---51" value="Tu" style="strokeWidth=1;shadow=0;dashed=0;align=center;html=1;shape=mxgraph.mockup.forms.anchor;fontColor=#999999;" parent="gmk9-GeeckrXVe3l32---46" vertex="1">
          <mxGeometry x="30" y="28" width="20" height="20" as="geometry" />
        </mxCell>
        <mxCell id="gmk9-GeeckrXVe3l32---52" value="We" style="strokeWidth=1;shadow=0;dashed=0;align=center;html=1;shape=mxgraph.mockup.forms.anchor;fontColor=#999999;" parent="gmk9-GeeckrXVe3l32---46" vertex="1">
          <mxGeometry x="50" y="28" width="20" height="20" as="geometry" />
        </mxCell>
        <mxCell id="gmk9-GeeckrXVe3l32---53" value="Th" style="strokeWidth=1;shadow=0;dashed=0;align=center;html=1;shape=mxgraph.mockup.forms.anchor;fontColor=#999999;" parent="gmk9-GeeckrXVe3l32---46" vertex="1">
          <mxGeometry x="70" y="28" width="20" height="20" as="geometry" />
        </mxCell>
        <mxCell id="gmk9-GeeckrXVe3l32---54" value="Fr" style="strokeWidth=1;shadow=0;dashed=0;align=center;html=1;shape=mxgraph.mockup.forms.anchor;fontColor=#999999;" parent="gmk9-GeeckrXVe3l32---46" vertex="1">
          <mxGeometry x="90" y="28" width="20" height="20" as="geometry" />
        </mxCell>
        <mxCell id="gmk9-GeeckrXVe3l32---55" value="Sa" style="strokeWidth=1;shadow=0;dashed=0;align=center;html=1;shape=mxgraph.mockup.forms.anchor;fontColor=#999999;" parent="gmk9-GeeckrXVe3l32---46" vertex="1">
          <mxGeometry x="110" y="28" width="20" height="20" as="geometry" />
        </mxCell>
        <mxCell id="gmk9-GeeckrXVe3l32---56" value="Su" style="strokeWidth=1;shadow=0;dashed=0;align=center;html=1;shape=mxgraph.mockup.forms.anchor;fontColor=#999999;" parent="gmk9-GeeckrXVe3l32---46" vertex="1">
          <mxGeometry x="130" y="28" width="20" height="20" as="geometry" />
        </mxCell>
        <mxCell id="gmk9-GeeckrXVe3l32---57" value="1" style="strokeWidth=1;shadow=0;dashed=0;align=center;html=1;shape=mxgraph.mockup.forms.rrect;rSize=0;strokeColor=#999999;fontColor=#999999;" parent="gmk9-GeeckrXVe3l32---46" vertex="1">
          <mxGeometry x="10" y="48" width="20" height="20" as="geometry" />
        </mxCell>
        <mxCell id="gmk9-GeeckrXVe3l32---58" value="2" style="strokeWidth=1;shadow=0;dashed=0;align=center;html=1;shape=mxgraph.mockup.forms.rrect;rSize=0;strokeColor=#999999;fontColor=#999999;" parent="gmk9-GeeckrXVe3l32---46" vertex="1">
          <mxGeometry x="30" y="48" width="20" height="20" as="geometry" />
        </mxCell>
        <mxCell id="gmk9-GeeckrXVe3l32---59" value="3" style="strokeWidth=1;shadow=0;dashed=0;align=center;html=1;shape=mxgraph.mockup.forms.rrect;rSize=0;strokeColor=#999999;fontColor=#999999;" parent="gmk9-GeeckrXVe3l32---46" vertex="1">
          <mxGeometry x="50" y="48" width="20" height="20" as="geometry" />
        </mxCell>
        <mxCell id="gmk9-GeeckrXVe3l32---60" value="4" style="strokeWidth=1;shadow=0;dashed=0;align=center;html=1;shape=mxgraph.mockup.forms.rrect;rSize=0;strokeColor=#999999;fontColor=#999999;" parent="gmk9-GeeckrXVe3l32---46" vertex="1">
          <mxGeometry x="70" y="48" width="20" height="20" as="geometry" />
        </mxCell>
        <mxCell id="gmk9-GeeckrXVe3l32---61" value="5" style="strokeWidth=1;shadow=0;dashed=0;align=center;html=1;shape=mxgraph.mockup.forms.rrect;rSize=0;strokeColor=#999999;fontColor=#999999;" parent="gmk9-GeeckrXVe3l32---46" vertex="1">
          <mxGeometry x="90" y="48" width="20" height="20" as="geometry" />
        </mxCell>
        <mxCell id="gmk9-GeeckrXVe3l32---62" value="6" style="strokeWidth=1;shadow=0;dashed=0;align=center;html=1;shape=mxgraph.mockup.forms.rrect;rSize=0;strokeColor=#999999;fontColor=#999999;" parent="gmk9-GeeckrXVe3l32---46" vertex="1">
          <mxGeometry x="110" y="48" width="20" height="20" as="geometry" />
        </mxCell>
        <mxCell id="gmk9-GeeckrXVe3l32---63" value="7" style="strokeWidth=1;shadow=0;dashed=0;align=center;html=1;shape=mxgraph.mockup.forms.rrect;rSize=0;strokeColor=#999999;fontColor=#999999;" parent="gmk9-GeeckrXVe3l32---46" vertex="1">
          <mxGeometry x="130" y="48" width="20" height="20" as="geometry" />
        </mxCell>
        <mxCell id="gmk9-GeeckrXVe3l32---64" value="8" style="strokeWidth=1;shadow=0;dashed=0;align=center;html=1;shape=mxgraph.mockup.forms.rrect;rSize=0;strokeColor=#999999;fontColor=#999999;" parent="gmk9-GeeckrXVe3l32---46" vertex="1">
          <mxGeometry x="10" y="68" width="20" height="20" as="geometry" />
        </mxCell>
        <mxCell id="gmk9-GeeckrXVe3l32---65" value="9" style="strokeWidth=1;shadow=0;dashed=0;align=center;html=1;shape=mxgraph.mockup.forms.rrect;rSize=0;strokeColor=#999999;fontColor=#999999;" parent="gmk9-GeeckrXVe3l32---46" vertex="1">
          <mxGeometry x="30" y="68" width="20" height="20" as="geometry" />
        </mxCell>
        <mxCell id="gmk9-GeeckrXVe3l32---66" value="10" style="strokeWidth=1;shadow=0;dashed=0;align=center;html=1;shape=mxgraph.mockup.forms.rrect;rSize=0;strokeColor=#999999;fontColor=#999999;" parent="gmk9-GeeckrXVe3l32---46" vertex="1">
          <mxGeometry x="50" y="68" width="20" height="20" as="geometry" />
        </mxCell>
        <mxCell id="gmk9-GeeckrXVe3l32---67" value="11" style="strokeWidth=1;shadow=0;dashed=0;align=center;html=1;shape=mxgraph.mockup.forms.rrect;rSize=0;strokeColor=#999999;fontColor=#999999;" parent="gmk9-GeeckrXVe3l32---46" vertex="1">
          <mxGeometry x="70" y="68" width="20" height="20" as="geometry" />
        </mxCell>
        <mxCell id="gmk9-GeeckrXVe3l32---68" value="12" style="strokeWidth=1;shadow=0;dashed=0;align=center;html=1;shape=mxgraph.mockup.forms.rrect;rSize=0;strokeColor=#999999;fontColor=#999999;" parent="gmk9-GeeckrXVe3l32---46" vertex="1">
          <mxGeometry x="90" y="68" width="20" height="20" as="geometry" />
        </mxCell>
        <mxCell id="gmk9-GeeckrXVe3l32---69" value="13" style="strokeWidth=1;shadow=0;dashed=0;align=center;html=1;shape=mxgraph.mockup.forms.rrect;rSize=0;strokeColor=#999999;fontColor=#999999;" parent="gmk9-GeeckrXVe3l32---46" vertex="1">
          <mxGeometry x="110" y="68" width="20" height="20" as="geometry" />
        </mxCell>
        <mxCell id="gmk9-GeeckrXVe3l32---70" value="14" style="strokeWidth=1;shadow=0;dashed=0;align=center;html=1;shape=mxgraph.mockup.forms.rrect;rSize=0;strokeColor=#999999;fontColor=#999999;" parent="gmk9-GeeckrXVe3l32---46" vertex="1">
          <mxGeometry x="130" y="68" width="20" height="20" as="geometry" />
        </mxCell>
        <mxCell id="gmk9-GeeckrXVe3l32---71" value="15" style="strokeWidth=1;shadow=0;dashed=0;align=center;html=1;shape=mxgraph.mockup.forms.rrect;rSize=0;strokeColor=#999999;fontColor=#999999;" parent="gmk9-GeeckrXVe3l32---46" vertex="1">
          <mxGeometry x="10" y="88" width="20" height="20" as="geometry" />
        </mxCell>
        <mxCell id="gmk9-GeeckrXVe3l32---72" value="16" style="strokeWidth=1;shadow=0;dashed=0;align=center;html=1;shape=mxgraph.mockup.forms.rrect;rSize=0;strokeColor=#999999;fontColor=#999999;" parent="gmk9-GeeckrXVe3l32---46" vertex="1">
          <mxGeometry x="30" y="88" width="20" height="20" as="geometry" />
        </mxCell>
        <mxCell id="gmk9-GeeckrXVe3l32---73" value="17" style="strokeWidth=1;shadow=0;dashed=0;align=center;html=1;shape=mxgraph.mockup.forms.rrect;rSize=0;strokeColor=#999999;fontColor=#999999;" parent="gmk9-GeeckrXVe3l32---46" vertex="1">
          <mxGeometry x="50" y="88" width="20" height="20" as="geometry" />
        </mxCell>
        <mxCell id="gmk9-GeeckrXVe3l32---74" value="18" style="strokeWidth=1;shadow=0;dashed=0;align=center;html=1;shape=mxgraph.mockup.forms.rrect;rSize=0;strokeColor=#999999;fontColor=#999999;" parent="gmk9-GeeckrXVe3l32---46" vertex="1">
          <mxGeometry x="70" y="88" width="20" height="20" as="geometry" />
        </mxCell>
        <mxCell id="gmk9-GeeckrXVe3l32---75" value="19" style="strokeWidth=1;shadow=0;dashed=0;align=center;html=1;shape=mxgraph.mockup.forms.rrect;rSize=0;strokeColor=#999999;fontColor=#999999;" parent="gmk9-GeeckrXVe3l32---46" vertex="1">
          <mxGeometry x="90" y="88" width="20" height="20" as="geometry" />
        </mxCell>
        <mxCell id="gmk9-GeeckrXVe3l32---76" value="20" style="strokeWidth=1;shadow=0;dashed=0;align=center;html=1;shape=mxgraph.mockup.forms.rrect;rSize=0;strokeColor=#999999;fontColor=#999999;" parent="gmk9-GeeckrXVe3l32---46" vertex="1">
          <mxGeometry x="110" y="88" width="20" height="20" as="geometry" />
        </mxCell>
        <mxCell id="gmk9-GeeckrXVe3l32---77" value="21" style="strokeWidth=1;shadow=0;dashed=0;align=center;html=1;shape=mxgraph.mockup.forms.rrect;rSize=0;strokeColor=#999999;fontColor=#999999;" parent="gmk9-GeeckrXVe3l32---46" vertex="1">
          <mxGeometry x="130" y="88" width="20" height="20" as="geometry" />
        </mxCell>
        <mxCell id="gmk9-GeeckrXVe3l32---78" value="22" style="strokeWidth=1;shadow=0;dashed=0;align=center;html=1;shape=mxgraph.mockup.forms.rrect;rSize=0;strokeColor=#999999;fontColor=#999999;" parent="gmk9-GeeckrXVe3l32---46" vertex="1">
          <mxGeometry x="10" y="108" width="20" height="20" as="geometry" />
        </mxCell>
        <mxCell id="gmk9-GeeckrXVe3l32---79" value="23" style="strokeWidth=1;shadow=0;dashed=0;align=center;html=1;shape=mxgraph.mockup.forms.rrect;rSize=0;strokeColor=#999999;fontColor=#999999;" parent="gmk9-GeeckrXVe3l32---46" vertex="1">
          <mxGeometry x="30" y="108" width="20" height="20" as="geometry" />
        </mxCell>
        <mxCell id="gmk9-GeeckrXVe3l32---80" value="25" style="strokeWidth=1;shadow=0;dashed=0;align=center;html=1;shape=mxgraph.mockup.forms.rrect;rSize=0;strokeColor=#999999;fontColor=#999999;" parent="gmk9-GeeckrXVe3l32---46" vertex="1">
          <mxGeometry x="70" y="108" width="20" height="20" as="geometry" />
        </mxCell>
        <mxCell id="gmk9-GeeckrXVe3l32---81" value="26" style="strokeWidth=1;shadow=0;dashed=0;align=center;html=1;shape=mxgraph.mockup.forms.rrect;rSize=0;strokeColor=#999999;fontColor=#999999;" parent="gmk9-GeeckrXVe3l32---46" vertex="1">
          <mxGeometry x="90" y="108" width="20" height="20" as="geometry" />
        </mxCell>
        <mxCell id="gmk9-GeeckrXVe3l32---82" value="27" style="strokeWidth=1;shadow=0;dashed=0;align=center;html=1;shape=mxgraph.mockup.forms.rrect;rSize=0;strokeColor=#999999;fontColor=#999999;" parent="gmk9-GeeckrXVe3l32---46" vertex="1">
          <mxGeometry x="110" y="108" width="20" height="20" as="geometry" />
        </mxCell>
        <mxCell id="gmk9-GeeckrXVe3l32---83" value="28" style="strokeWidth=1;shadow=0;dashed=0;align=center;html=1;shape=mxgraph.mockup.forms.rrect;rSize=0;strokeColor=#999999;fontColor=#999999;" parent="gmk9-GeeckrXVe3l32---46" vertex="1">
          <mxGeometry x="130" y="108" width="20" height="20" as="geometry" />
        </mxCell>
        <mxCell id="gmk9-GeeckrXVe3l32---84" value="29" style="strokeWidth=1;shadow=0;dashed=0;align=center;html=1;shape=mxgraph.mockup.forms.rrect;rSize=0;strokeColor=#999999;fontColor=#999999;" parent="gmk9-GeeckrXVe3l32---46" vertex="1">
          <mxGeometry x="10" y="128" width="20" height="20" as="geometry" />
        </mxCell>
        <mxCell id="gmk9-GeeckrXVe3l32---85" value="30" style="strokeWidth=1;shadow=0;dashed=0;align=center;html=1;shape=mxgraph.mockup.forms.rrect;rSize=0;strokeColor=#999999;fontColor=#999999;" parent="gmk9-GeeckrXVe3l32---46" vertex="1">
          <mxGeometry x="30" y="128" width="20" height="20" as="geometry" />
        </mxCell>
        <mxCell id="gmk9-GeeckrXVe3l32---86" value="31" style="strokeWidth=1;shadow=0;dashed=0;align=center;html=1;shape=mxgraph.mockup.forms.rrect;rSize=0;strokeColor=#999999;fontColor=#999999;" parent="gmk9-GeeckrXVe3l32---46" vertex="1">
          <mxGeometry x="50" y="128" width="20" height="20" as="geometry" />
        </mxCell>
        <mxCell id="gmk9-GeeckrXVe3l32---87" value="1" style="strokeWidth=1;shadow=0;dashed=0;align=center;html=1;shape=mxgraph.mockup.forms.rrect;rSize=0;strokeColor=#999999;fontColor=#999999;fillColor=#ddeeff;" parent="gmk9-GeeckrXVe3l32---46" vertex="1">
          <mxGeometry x="70" y="128" width="20" height="20" as="geometry" />
        </mxCell>
        <mxCell id="gmk9-GeeckrXVe3l32---88" value="2" style="strokeWidth=1;shadow=0;dashed=0;align=center;html=1;shape=mxgraph.mockup.forms.rrect;rSize=0;strokeColor=#999999;fontColor=#999999;fillColor=#ddeeff;" parent="gmk9-GeeckrXVe3l32---46" vertex="1">
          <mxGeometry x="90" y="128" width="20" height="20" as="geometry" />
        </mxCell>
        <mxCell id="gmk9-GeeckrXVe3l32---89" value="3" style="strokeWidth=1;shadow=0;dashed=0;align=center;html=1;shape=mxgraph.mockup.forms.rrect;rSize=0;strokeColor=#999999;fontColor=#999999;fillColor=#ddeeff;" parent="gmk9-GeeckrXVe3l32---46" vertex="1">
          <mxGeometry x="110" y="128" width="20" height="20" as="geometry" />
        </mxCell>
        <mxCell id="gmk9-GeeckrXVe3l32---90" value="4" style="strokeWidth=1;shadow=0;dashed=0;align=center;html=1;shape=mxgraph.mockup.forms.rrect;rSize=0;strokeColor=#999999;fontColor=#999999;fillColor=#ddeeff;" parent="gmk9-GeeckrXVe3l32---46" vertex="1">
          <mxGeometry x="130" y="128" width="20" height="20" as="geometry" />
        </mxCell>
        <mxCell id="gmk9-GeeckrXVe3l32---91" value="5" style="strokeWidth=1;shadow=0;dashed=0;align=center;html=1;shape=mxgraph.mockup.forms.rrect;rSize=0;strokeColor=#999999;fontColor=#999999;fillColor=#ddeeff;" parent="gmk9-GeeckrXVe3l32---46" vertex="1">
          <mxGeometry x="10" y="148" width="20" height="20" as="geometry" />
        </mxCell>
        <mxCell id="gmk9-GeeckrXVe3l32---92" value="6" style="strokeWidth=1;shadow=0;dashed=0;align=center;html=1;shape=mxgraph.mockup.forms.rrect;rSize=0;strokeColor=#999999;fontColor=#999999;fillColor=#ddeeff;" parent="gmk9-GeeckrXVe3l32---46" vertex="1">
          <mxGeometry x="30" y="148" width="20" height="20" as="geometry" />
        </mxCell>
        <mxCell id="gmk9-GeeckrXVe3l32---93" value="7" style="strokeWidth=1;shadow=0;dashed=0;align=center;html=1;shape=mxgraph.mockup.forms.rrect;rSize=0;strokeColor=#999999;fontColor=#999999;fillColor=#ddeeff;" parent="gmk9-GeeckrXVe3l32---46" vertex="1">
          <mxGeometry x="50" y="148" width="20" height="20" as="geometry" />
        </mxCell>
        <mxCell id="gmk9-GeeckrXVe3l32---94" value="8" style="strokeWidth=1;shadow=0;dashed=0;align=center;html=1;shape=mxgraph.mockup.forms.rrect;rSize=0;strokeColor=#999999;fontColor=#999999;fillColor=#ddeeff;" parent="gmk9-GeeckrXVe3l32---46" vertex="1">
          <mxGeometry x="70" y="148" width="20" height="20" as="geometry" />
        </mxCell>
        <mxCell id="gmk9-GeeckrXVe3l32---95" value="9" style="strokeWidth=1;shadow=0;dashed=0;align=center;html=1;shape=mxgraph.mockup.forms.rrect;rSize=0;strokeColor=#999999;fontColor=#999999;fillColor=#ddeeff;" parent="gmk9-GeeckrXVe3l32---46" vertex="1">
          <mxGeometry x="90" y="148" width="20" height="20" as="geometry" />
        </mxCell>
        <mxCell id="gmk9-GeeckrXVe3l32---96" value="10" style="strokeWidth=1;shadow=0;dashed=0;align=center;html=1;shape=mxgraph.mockup.forms.rrect;rSize=0;strokeColor=#999999;fontColor=#999999;fillColor=#ddeeff;" parent="gmk9-GeeckrXVe3l32---46" vertex="1">
          <mxGeometry x="110" y="148" width="20" height="20" as="geometry" />
        </mxCell>
        <mxCell id="gmk9-GeeckrXVe3l32---97" value="11" style="strokeWidth=1;shadow=0;dashed=0;align=center;html=1;shape=mxgraph.mockup.forms.rrect;rSize=0;strokeColor=#999999;fontColor=#999999;fillColor=#ddeeff;" parent="gmk9-GeeckrXVe3l32---46" vertex="1">
          <mxGeometry x="130" y="148" width="20" height="20" as="geometry" />
        </mxCell>
        <mxCell id="gmk9-GeeckrXVe3l32---98" value="24" style="strokeWidth=1;shadow=0;dashed=0;align=center;html=1;shape=mxgraph.mockup.forms.rrect;rSize=0;strokeColor=#ff0000;fontColor=#ffffff;strokeWidth=2;fillColor=#008cff;" parent="gmk9-GeeckrXVe3l32---46" vertex="1">
          <mxGeometry x="50" y="108" width="20" height="20" as="geometry" />
        </mxCell>
        <mxCell id="gmk9-GeeckrXVe3l32---99" value="Upload CV" style="shape=rectangle;strokeColor=none;fillColor=none;linkText=;fontSize=17;fontColor=#0000ff;fontStyle=4;html=1;align=center;" parent="gmk9-GeeckrXVe3l32---27" vertex="1">
          <mxGeometry x="160" y="490" width="150" height="30" as="geometry" />
        </mxCell>
        <mxCell id="gmk9-GeeckrXVe3l32---100" value="Upload Profile Picture" style="shape=rectangle;strokeColor=none;fillColor=none;linkText=;fontSize=17;fontColor=#0000ff;fontStyle=4;html=1;align=center;" parent="gmk9-GeeckrXVe3l32---27" vertex="1">
          <mxGeometry x="197" y="227.5" width="150" height="30" as="geometry" />
        </mxCell>
        <mxCell id="gmk9-GeeckrXVe3l32---173" value="Save" style="strokeWidth=1;shadow=0;dashed=0;align=center;html=1;shape=mxgraph.mockup.buttons.button;strokeColor=#666666;mainText=;buttonStyle=round;fontSize=17;fontStyle=0;fillColor=none;whiteSpace=wrap;rounded=0;labelBackgroundColor=none;" parent="gmk9-GeeckrXVe3l32---27" vertex="1">
          <mxGeometry x="310" y="735" width="190" height="30" as="geometry" />
        </mxCell>
        <mxCell id="gmk9-GeeckrXVe3l32---174" value="email" style="text;html=1;points=[];align=left;verticalAlign=top;spacingTop=-4;fontSize=15;fontFamily=Verdana" parent="gmk9-GeeckrXVe3l32---27" vertex="1">
          <mxGeometry x="90" y="535" width="170" height="30" as="geometry" />
        </mxCell>
        <mxCell id="gmk9-GeeckrXVe3l32---175" value="read only email here" style="strokeWidth=1;shadow=0;dashed=0;align=center;html=1;shape=mxgraph.mockup.text.textBox;fontColor=#666666;align=left;fontSize=17;spacingLeft=4;spacingTop=-3;whiteSpace=wrap;strokeColor=#666666;mainText=" parent="gmk9-GeeckrXVe3l32---27" vertex="1">
          <mxGeometry x="180" y="535" width="200" height="30" as="geometry" />
        </mxCell>
        <mxCell id="gmk9-GeeckrXVe3l32---176" value="from signup process" style="strokeWidth=1;shadow=0;dashed=1;align=center;html=1;shape=mxgraph.mockup.text.callout;linkText=;textSize=17;textColor=#666666;callDir=SE;callStyle=line;fontSize=17;fontColor=#666666;align=right;verticalAlign=bottom;strokeColor=#666666;" parent="gmk9-GeeckrXVe3l32---27" vertex="1">
          <mxGeometry x="390" y="555" width="330" height="10" as="geometry" />
        </mxCell>
        <mxCell id="gmk9-GeeckrXVe3l32---184" value="" style="strokeWidth=1;shadow=0;dashed=0;align=center;html=1;shape=mxgraph.mockup.forms.rrect;rSize=0;strokeColor=#999999;fillColor=#ffffff;" parent="gmk9-GeeckrXVe3l32---27" vertex="1">
          <mxGeometry x="180" y="585" width="255" height="125" as="geometry" />
        </mxCell>
        <mxCell id="gmk9-GeeckrXVe3l32---185" value="Jobs Applied for" style="strokeWidth=1;shadow=0;dashed=0;align=center;html=1;shape=mxgraph.mockup.forms.rrect;rSize=0;strokeColor=#999999;fontColor=#008cff;fontSize=17;fillColor=#ffffff;resizeWidth=1;whiteSpace=wrap;" parent="gmk9-GeeckrXVe3l32---184" vertex="1">
          <mxGeometry width="255" height="30" relative="1" as="geometry">
            <mxPoint y="-1" as="offset" />
          </mxGeometry>
        </mxCell>
        <mxCell id="gmk9-GeeckrXVe3l32---186" value="Accounting Intern" style="strokeWidth=1;shadow=0;dashed=0;align=center;html=1;shape=mxgraph.mockup.forms.anchor;fontSize=17;fontColor=#666666;align=left;spacingLeft=5;resizeWidth=1;whiteSpace=wrap;" parent="gmk9-GeeckrXVe3l32---184" vertex="1">
          <mxGeometry width="255" height="20" relative="1" as="geometry">
            <mxPoint y="30" as="offset" />
          </mxGeometry>
        </mxCell>
        <mxCell id="gmk9-GeeckrXVe3l32---187" value="CFO at ACME" style="strokeWidth=1;shadow=0;dashed=0;align=center;html=1;shape=mxgraph.mockup.forms.anchor;fontSize=17;fontColor=#666666;align=left;spacingLeft=5;resizeWidth=1;whiteSpace=wrap;" parent="gmk9-GeeckrXVe3l32---184" vertex="1">
          <mxGeometry width="255" height="20" relative="1" as="geometry">
            <mxPoint y="50" as="offset" />
          </mxGeometry>
        </mxCell>
        <mxCell id="gmk9-GeeckrXVe3l32---188" value="" style="strokeWidth=1;shadow=0;dashed=0;align=center;html=1;shape=mxgraph.mockup.forms.rrect;rSize=0;fontSize=17;fontColor=#666666;align=left;spacingLeft=5;fillColor=#ddeeff;strokeColor=none;resizeWidth=1;whiteSpace=wrap;" parent="gmk9-GeeckrXVe3l32---184" vertex="1">
          <mxGeometry width="255" height="20" relative="1" as="geometry">
            <mxPoint y="70" as="offset" />
          </mxGeometry>
        </mxCell>
        <mxCell id="gmk9-GeeckrXVe3l32---189" value="" style="strokeWidth=1;shadow=0;dashed=0;align=center;html=1;shape=mxgraph.mockup.forms.anchor;fontSize=17;fontColor=#666666;align=left;spacingLeft=5;resizeWidth=1;whiteSpace=wrap;" parent="gmk9-GeeckrXVe3l32---184" vertex="1">
          <mxGeometry width="255" height="20" relative="1" as="geometry">
            <mxPoint y="90" as="offset" />
          </mxGeometry>
        </mxCell>
        <mxCell id="gmk9-GeeckrXVe3l32---129" value="from signup process" style="strokeWidth=1;shadow=0;dashed=1;align=center;html=1;shape=mxgraph.mockup.text.callout;linkText=;textSize=17;textColor=#666666;callDir=SE;callStyle=line;fontSize=17;fontColor=#666666;align=right;verticalAlign=bottom;strokeColor=#666666;" parent="1" vertex="1">
          <mxGeometry x="410" y="330" width="350" height="10" as="geometry" />
        </mxCell>
        <mxCell id="gmk9-GeeckrXVe3l32---126" value="hardcoded in database" style="strokeWidth=1;shadow=0;dashed=1;align=center;html=1;shape=mxgraph.mockup.text.callout;linkText=;textSize=17;textColor=#666666;callDir=SE;callStyle=line;fontSize=17;fontColor=#666666;align=right;verticalAlign=bottom;strokeColor=#666666;" parent="1" vertex="1">
          <mxGeometry x="490" y="640" width="500" height="135" as="geometry" />
        </mxCell>
        <mxCell id="gmk9-GeeckrXVe3l32---130" value="create the recruiters basic profile not captured at signup (POST)" style="shape=note;whiteSpace=wrap;html=1;backgroundOutline=1;darkOpacity=0.05;fillColor=#fff2cc;strokeColor=#d6b656;" parent="1" vertex="1">
          <mxGeometry x="640" y="40" width="100" height="130" as="geometry" />
        </mxCell>
        <mxCell id="gmk9-GeeckrXVe3l32---131" value="recruiter create role (POST)" style="shape=note;whiteSpace=wrap;html=1;backgroundOutline=1;darkOpacity=0.05;fillColor=#fff2cc;strokeColor=#d6b656;" parent="1" vertex="1">
          <mxGeometry x="710" y="430" width="100" height="130" as="geometry" />
        </mxCell>
        <mxCell id="gmk9-GeeckrXVe3l32---145" value="" style="strokeWidth=1;shadow=0;dashed=0;align=center;html=1;shape=mxgraph.mockup.containers.browserWindow;rSize=0;strokeColor=#666666;mainText=,;recursiveResize=0;rounded=0;labelBackgroundColor=none;fontFamily=Verdana;fontSize=12" parent="1" vertex="1">
          <mxGeometry x="605" y="2050" width="635" height="410" as="geometry" />
        </mxCell>
        <mxCell id="gmk9-GeeckrXVe3l32---146" value="Crisp.nz" style="strokeWidth=1;shadow=0;dashed=0;align=center;html=1;shape=mxgraph.mockup.containers.anchor;fontSize=17;fontColor=#666666;align=left;" parent="gmk9-GeeckrXVe3l32---145" vertex="1">
          <mxGeometry x="60" y="12" width="110" height="26" as="geometry" />
        </mxCell>
        <mxCell id="gmk9-GeeckrXVe3l32---147" value="https://www.crisp.nz/jobseekers/jobs" style="strokeWidth=1;shadow=0;dashed=0;align=center;html=1;shape=mxgraph.mockup.containers.anchor;rSize=0;fontSize=17;fontColor=#666666;align=left;" parent="gmk9-GeeckrXVe3l32---145" vertex="1">
          <mxGeometry x="130" y="60" width="250" height="26" as="geometry" />
        </mxCell>
        <mxCell id="gmk9-GeeckrXVe3l32---149" value="Apply" style="strokeWidth=1;shadow=0;dashed=0;align=center;html=1;shape=mxgraph.mockup.buttons.button;strokeColor=#666666;mainText=;buttonStyle=round;fontSize=17;fontStyle=0;fillColor=none;whiteSpace=wrap;rounded=0;labelBackgroundColor=none;" parent="gmk9-GeeckrXVe3l32---145" vertex="1">
          <mxGeometry x="217" y="340" width="190" height="30" as="geometry" />
        </mxCell>
        <mxCell id="gmk9-GeeckrXVe3l32---150" value="Job Description" style="text;html=1;points=[];align=left;verticalAlign=top;spacingTop=-4;fontSize=15;fontFamily=Verdana" parent="gmk9-GeeckrXVe3l32---145" vertex="1">
          <mxGeometry x="77" y="210" width="170" height="30" as="geometry" />
        </mxCell>
        <mxCell id="gmk9-GeeckrXVe3l32---151" value="readonly" style="strokeWidth=1;shadow=0;dashed=0;align=center;html=1;shape=mxgraph.mockup.text.textBox;fontColor=#666666;align=left;fontSize=17;spacingLeft=4;spacingTop=-3;whiteSpace=wrap;strokeColor=#666666;mainText=" parent="gmk9-GeeckrXVe3l32---145" vertex="1">
          <mxGeometry x="217" y="190" width="380" height="70" as="geometry" />
        </mxCell>
        <mxCell id="gmk9-GeeckrXVe3l32---152" value="Salary&amp;nbsp; &amp;nbsp;$" style="text;html=1;points=[];align=left;verticalAlign=top;spacingTop=-4;fontSize=15;fontFamily=Verdana" parent="gmk9-GeeckrXVe3l32---145" vertex="1">
          <mxGeometry x="127" y="280" width="170" height="30" as="geometry" />
        </mxCell>
        <mxCell id="gmk9-GeeckrXVe3l32---153" value="readonly" style="strokeWidth=1;shadow=0;dashed=0;align=center;html=1;shape=mxgraph.mockup.text.textBox;fontColor=#666666;align=left;fontSize=17;spacingLeft=4;spacingTop=-3;whiteSpace=wrap;strokeColor=#666666;mainText=" parent="gmk9-GeeckrXVe3l32---145" vertex="1">
          <mxGeometry x="217" y="280" width="200" height="30" as="geometry" />
        </mxCell>
        <mxCell id="gmk9-GeeckrXVe3l32---155" value="Job Title" style="text;html=1;points=[];align=left;verticalAlign=top;spacingTop=-4;fontSize=15;fontFamily=Verdana" parent="gmk9-GeeckrXVe3l32---145" vertex="1">
          <mxGeometry x="117" y="140" width="170" height="30" as="geometry" />
        </mxCell>
        <mxCell id="gmk9-GeeckrXVe3l32---156" value="readonly&amp;nbsp;" style="strokeWidth=1;shadow=0;dashed=0;align=center;html=1;shape=mxgraph.mockup.text.textBox;fontColor=#666666;align=left;fontSize=17;spacingLeft=4;spacingTop=-3;whiteSpace=wrap;strokeColor=#666666;mainText=" parent="gmk9-GeeckrXVe3l32---145" vertex="1">
          <mxGeometry x="217" y="140" width="200" height="30" as="geometry" />
        </mxCell>
        <mxCell id="gmk9-GeeckrXVe3l32---170" value="Cancel" style="strokeWidth=1;shadow=0;dashed=0;align=center;html=1;shape=mxgraph.mockup.buttons.button;strokeColor=#666666;mainText=;buttonStyle=round;fontSize=17;fontStyle=0;fillColor=none;whiteSpace=wrap;rounded=0;labelBackgroundColor=none;" parent="gmk9-GeeckrXVe3l32---145" vertex="1">
          <mxGeometry x="427" y="340" width="190" height="30" as="geometry" />
        </mxCell>
        <mxCell id="gmk9-GeeckrXVe3l32---106" value="" style="strokeWidth=1;shadow=0;dashed=0;align=center;html=1;shape=mxgraph.mockup.containers.browserWindow;rSize=0;strokeColor=#666666;mainText=,;recursiveResize=0;rounded=0;labelBackgroundColor=none;fontFamily=Verdana;fontSize=12" parent="1" vertex="1">
          <mxGeometry x="30" y="1800" width="515" height="510" as="geometry" />
        </mxCell>
        <mxCell id="gmk9-GeeckrXVe3l32---107" value="Crisp.nz" style="strokeWidth=1;shadow=0;dashed=0;align=center;html=1;shape=mxgraph.mockup.containers.anchor;fontSize=17;fontColor=#666666;align=left;" parent="gmk9-GeeckrXVe3l32---106" vertex="1">
          <mxGeometry x="60" y="12" width="110" height="26" as="geometry" />
        </mxCell>
        <mxCell id="gmk9-GeeckrXVe3l32---108" value="https://www.crisp.nz/jobseekers/jobs" style="strokeWidth=1;shadow=0;dashed=0;align=center;html=1;shape=mxgraph.mockup.containers.anchor;rSize=0;fontSize=17;fontColor=#666666;align=left;" parent="gmk9-GeeckrXVe3l32---106" vertex="1">
          <mxGeometry x="130" y="60" width="250" height="26" as="geometry" />
        </mxCell>
        <mxCell id="gmk9-GeeckrXVe3l32---109" value="Select Category" style="text;html=1;points=[];align=left;verticalAlign=top;spacingTop=-4;fontSize=15;fontFamily=Verdana" parent="gmk9-GeeckrXVe3l32---106" vertex="1">
          <mxGeometry x="70" y="158.5" width="170" height="30" as="geometry" />
        </mxCell>
        <mxCell id="gmk9-GeeckrXVe3l32---110" value="Close" style="strokeWidth=1;shadow=0;dashed=0;align=center;html=1;shape=mxgraph.mockup.buttons.button;strokeColor=#666666;mainText=;buttonStyle=round;fontSize=17;fontStyle=0;fillColor=none;whiteSpace=wrap;rounded=0;labelBackgroundColor=none;" parent="gmk9-GeeckrXVe3l32---106" vertex="1">
          <mxGeometry x="265" y="450" width="190" height="30" as="geometry" />
        </mxCell>
        <mxCell id="gmk9-GeeckrXVe3l32---115" value="Select 1 of 4 Categories" style="strokeWidth=1;shadow=0;dashed=0;align=center;html=1;shape=mxgraph.mockup.forms.comboBox;strokeColor=#999999;fillColor=#ddeeff;align=left;fillColor2=#aaddff;mainText=;fontColor=#666666;fontSize=17;spacingLeft=3;" parent="gmk9-GeeckrXVe3l32---106" vertex="1">
          <mxGeometry x="200" y="158.5" width="260" height="30" as="geometry" />
        </mxCell>
        <mxCell id="gmk9-GeeckrXVe3l32---164" value="" style="strokeWidth=1;shadow=0;dashed=0;align=center;html=1;shape=mxgraph.mockup.forms.rrect;rSize=0;strokeColor=#999999;fillColor=#ffffff;" parent="gmk9-GeeckrXVe3l32---106" vertex="1">
          <mxGeometry x="200" y="220" width="255" height="200" as="geometry" />
        </mxCell>
        <mxCell id="gmk9-GeeckrXVe3l32---165" value="Accounting Jobs" style="strokeWidth=1;shadow=0;dashed=0;align=center;html=1;shape=mxgraph.mockup.forms.rrect;rSize=0;strokeColor=#999999;fontColor=#008cff;fontSize=17;fillColor=#ffffff;resizeWidth=1;whiteSpace=wrap;" parent="gmk9-GeeckrXVe3l32---164" vertex="1">
          <mxGeometry width="255" height="30" relative="1" as="geometry">
            <mxPoint y="-1" as="offset" />
          </mxGeometry>
        </mxCell>
        <mxCell id="gmk9-GeeckrXVe3l32---166" value="Accounting Intern" style="strokeWidth=1;shadow=0;dashed=0;align=center;html=1;shape=mxgraph.mockup.forms.anchor;fontSize=17;fontColor=#666666;align=left;spacingLeft=5;resizeWidth=1;whiteSpace=wrap;" parent="gmk9-GeeckrXVe3l32---164" vertex="1">
          <mxGeometry width="255" height="20" relative="1" as="geometry">
            <mxPoint y="30" as="offset" />
          </mxGeometry>
        </mxCell>
        <mxCell id="gmk9-GeeckrXVe3l32---167" value="CFO at ACME" style="strokeWidth=1;shadow=0;dashed=0;align=center;html=1;shape=mxgraph.mockup.forms.anchor;fontSize=17;fontColor=#666666;align=left;spacingLeft=5;resizeWidth=1;whiteSpace=wrap;" parent="gmk9-GeeckrXVe3l32---164" vertex="1">
          <mxGeometry width="255" height="20" relative="1" as="geometry">
            <mxPoint y="50" as="offset" />
          </mxGeometry>
        </mxCell>
        <mxCell id="gmk9-GeeckrXVe3l32---168" value="Book Keeper @ Bunnings" style="strokeWidth=1;shadow=0;dashed=0;align=center;html=1;shape=mxgraph.mockup.forms.rrect;rSize=0;fontSize=17;fontColor=#666666;align=left;spacingLeft=5;fillColor=#ddeeff;strokeColor=none;resizeWidth=1;whiteSpace=wrap;" parent="gmk9-GeeckrXVe3l32---164" vertex="1">
          <mxGeometry width="255" height="20" relative="1" as="geometry">
            <mxPoint y="70" as="offset" />
          </mxGeometry>
        </mxCell>
        <mxCell id="gmk9-GeeckrXVe3l32---169" value="Senior Accountant" style="strokeWidth=1;shadow=0;dashed=0;align=center;html=1;shape=mxgraph.mockup.forms.anchor;fontSize=17;fontColor=#666666;align=left;spacingLeft=5;resizeWidth=1;whiteSpace=wrap;" parent="gmk9-GeeckrXVe3l32---164" vertex="1">
          <mxGeometry width="255" height="20" relative="1" as="geometry">
            <mxPoint y="90" as="offset" />
          </mxGeometry>
        </mxCell>
        <mxCell id="gmk9-GeeckrXVe3l32---172" value="Select Job" style="text;html=1;points=[];align=left;verticalAlign=top;spacingTop=-4;fontSize=15;fontFamily=Verdana" parent="gmk9-GeeckrXVe3l32---106" vertex="1">
          <mxGeometry x="100" y="300" width="170" height="30" as="geometry" />
        </mxCell>
        <mxCell id="gmk9-GeeckrXVe3l32---182" style="edgeStyle=orthogonalEdgeStyle;rounded=0;orthogonalLoop=1;jettySize=auto;html=1;entryX=1;entryY=0;entryDx=0;entryDy=0;entryPerimeter=0;exitX=0.981;exitY=0.5;exitDx=0;exitDy=0;exitPerimeter=0;fillColor=#f8cecc;strokeColor=#b85450;dashed=1;strokeWidth=4;" parent="gmk9-GeeckrXVe3l32---106" source="gmk9-GeeckrXVe3l32---115" target="gmk9-GeeckrXVe3l32---168" edge="1">
          <mxGeometry relative="1" as="geometry">
            <Array as="points">
              <mxPoint x="525" y="174" />
              <mxPoint x="525" y="290" />
            </Array>
          </mxGeometry>
        </mxCell>
        <mxCell id="gmk9-GeeckrXVe3l32---103" value="Upload to S3" style="strokeWidth=1;shadow=0;dashed=1;align=center;html=1;shape=mxgraph.mockup.text.callout;linkText=;textSize=17;textColor=#666666;callDir=NE;callStyle=line;fontSize=17;fontColor=#666666;align=right;verticalAlign=top;strokeColor=#666666;" parent="1" vertex="1">
          <mxGeometry x="400" y="1136.25" width="300" height="83.75" as="geometry" />
        </mxCell>
        <mxCell id="gmk9-GeeckrXVe3l32---102" value="Upload to S3" style="strokeWidth=1;shadow=0;dashed=1;align=center;html=1;shape=mxgraph.mockup.text.callout;linkText=;textSize=17;textColor=#666666;callDir=NE;callStyle=line;fontSize=17;fontColor=#666666;align=right;verticalAlign=top;strokeColor=#666666;" parent="1" vertex="1">
          <mxGeometry x="330" y="1435" width="370" height="45" as="geometry" />
        </mxCell>
        <mxCell id="gmk9-GeeckrXVe3l32---171" value="create the jobseekers basic profile not captured at signup (POST)" style="shape=note;whiteSpace=wrap;html=1;backgroundOutline=1;darkOpacity=0.05;fillColor=#fff2cc;strokeColor=#d6b656;" parent="1" vertex="1">
          <mxGeometry x="600" y="1200" width="100" height="130" as="geometry" />
        </mxCell>
        <mxCell id="gmk9-GeeckrXVe3l32---177" value="" style="endArrow=classic;html=1;rounded=0;exitX=1.02;exitY=0.65;exitDx=0;exitDy=0;exitPerimeter=0;strokeWidth=4;dashed=1;fillColor=#f8cecc;strokeColor=#b85450;" parent="1" source="gmk9-GeeckrXVe3l32---168" edge="1">
          <mxGeometry width="50" height="50" relative="1" as="geometry">
            <mxPoint x="655" y="2240" as="sourcePoint" />
            <mxPoint x="705" y="2190" as="targetPoint" />
          </mxGeometry>
        </mxCell>
        <mxCell id="gmk9-GeeckrXVe3l32---178" value="update the jobseekers basic profile not captured at signup (PUT)" style="shape=note;whiteSpace=wrap;html=1;backgroundOutline=1;darkOpacity=0.05;fillColor=#fff2cc;strokeColor=#d6b656;" parent="1" vertex="1">
          <mxGeometry x="670" y="1305" width="100" height="130" as="geometry" />
        </mxCell>
        <mxCell id="gmk9-GeeckrXVe3l32---179" value="load jobseeker profile (GET)" style="shape=note;whiteSpace=wrap;html=1;backgroundOutline=1;darkOpacity=0.05;fillColor=#fff2cc;strokeColor=#d6b656;" parent="1" vertex="1">
          <mxGeometry x="710" y="1160" width="100" height="130" as="geometry" />
        </mxCell>
        <mxCell id="gmk9-GeeckrXVe3l32---180" value="update the recruiters basic profile (PUT)" style="shape=note;whiteSpace=wrap;html=1;backgroundOutline=1;darkOpacity=0.05;fillColor=#fff2cc;strokeColor=#d6b656;" parent="1" vertex="1">
          <mxGeometry x="710" y="150" width="100" height="130" as="geometry" />
        </mxCell>
        <mxCell id="gmk9-GeeckrXVe3l32---181" value="load the recruiters basic profile (GET)" style="shape=note;whiteSpace=wrap;html=1;backgroundOutline=1;darkOpacity=0.05;fillColor=#fff2cc;strokeColor=#d6b656;" parent="1" vertex="1">
          <mxGeometry x="750" y="10" width="100" height="130" as="geometry" />
        </mxCell>
        <mxCell id="iJDcL9aii5cb_pIzs1nn-7" value="" style="strokeWidth=1;shadow=0;dashed=0;align=center;html=1;shape=mxgraph.mockup.containers.browserWindow;rSize=0;strokeColor=#666666;mainText=,;recursiveResize=0;rounded=0;labelBackgroundColor=none;fontFamily=Verdana;fontSize=12" vertex="1" parent="1">
          <mxGeometry x="1000" y="480" width="510" height="440" as="geometry" />
        </mxCell>
        <mxCell id="iJDcL9aii5cb_pIzs1nn-8" value="Crisp.nz" style="strokeWidth=1;shadow=0;dashed=0;align=center;html=1;shape=mxgraph.mockup.containers.anchor;fontSize=17;fontColor=#666666;align=left;" vertex="1" parent="iJDcL9aii5cb_pIzs1nn-7">
          <mxGeometry x="60" y="12" width="110" height="26" as="geometry" />
        </mxCell>
        <mxCell id="iJDcL9aii5cb_pIzs1nn-9" value="https://www.crisp.nz/recruitment/candidates" style="strokeWidth=1;shadow=0;dashed=0;align=center;html=1;shape=mxgraph.mockup.containers.anchor;rSize=0;fontSize=17;fontColor=#666666;align=left;" vertex="1" parent="iJDcL9aii5cb_pIzs1nn-7">
          <mxGeometry x="130" y="60" width="250" height="26" as="geometry" />
        </mxCell>
        <mxCell id="iJDcL9aii5cb_pIzs1nn-10" value="Category" style="text;html=1;points=[];align=left;verticalAlign=top;spacingTop=-4;fontSize=15;fontFamily=Verdana" vertex="1" parent="iJDcL9aii5cb_pIzs1nn-7">
          <mxGeometry x="90" y="140" width="170" height="30" as="geometry" />
        </mxCell>
        <mxCell id="iJDcL9aii5cb_pIzs1nn-16" value="Select 1 of 4 Categories" style="strokeWidth=1;shadow=0;dashed=0;align=center;html=1;shape=mxgraph.mockup.forms.comboBox;strokeColor=#999999;fillColor=#ddeeff;align=left;fillColor2=#aaddff;mainText=;fontColor=#666666;fontSize=17;spacingLeft=3;" vertex="1" parent="iJDcL9aii5cb_pIzs1nn-7">
          <mxGeometry x="190" y="140" width="260" height="30" as="geometry" />
        </mxCell>
        <mxCell id="iJDcL9aii5cb_pIzs1nn-19" value="Close" style="strokeWidth=1;shadow=0;dashed=0;align=center;html=1;shape=mxgraph.mockup.buttons.button;strokeColor=#666666;mainText=;buttonStyle=round;fontSize=17;fontStyle=0;fillColor=none;whiteSpace=wrap;rounded=0;labelBackgroundColor=none;" vertex="1" parent="iJDcL9aii5cb_pIzs1nn-7">
          <mxGeometry x="255" y="370" width="190" height="30" as="geometry" />
        </mxCell>
        <mxCell id="iJDcL9aii5cb_pIzs1nn-20" value="" style="strokeWidth=1;shadow=0;dashed=0;align=center;html=1;shape=mxgraph.mockup.forms.rrect;rSize=0;strokeColor=#999999;fillColor=#ffffff;" vertex="1" parent="iJDcL9aii5cb_pIzs1nn-7">
          <mxGeometry x="190" y="190" width="255" height="125" as="geometry" />
        </mxCell>
        <mxCell id="iJDcL9aii5cb_pIzs1nn-21" value="Candidates by category" style="strokeWidth=1;shadow=0;dashed=0;align=center;html=1;shape=mxgraph.mockup.forms.rrect;rSize=0;strokeColor=#999999;fontColor=#008cff;fontSize=17;fillColor=#ffffff;resizeWidth=1;whiteSpace=wrap;" vertex="1" parent="iJDcL9aii5cb_pIzs1nn-20">
          <mxGeometry width="255" height="30" relative="1" as="geometry">
            <mxPoint y="-1" as="offset" />
          </mxGeometry>
        </mxCell>
        <mxCell id="iJDcL9aii5cb_pIzs1nn-22" value="Mike Chene" style="strokeWidth=1;shadow=0;dashed=0;align=center;html=1;shape=mxgraph.mockup.forms.anchor;fontSize=17;fontColor=#666666;align=left;spacingLeft=5;resizeWidth=1;whiteSpace=wrap;" vertex="1" parent="iJDcL9aii5cb_pIzs1nn-20">
          <mxGeometry width="255" height="20" relative="1" as="geometry">
            <mxPoint y="30" as="offset" />
          </mxGeometry>
        </mxCell>
        <mxCell id="iJDcL9aii5cb_pIzs1nn-23" value="Tomasso Cammelli" style="strokeWidth=1;shadow=0;dashed=0;align=center;html=1;shape=mxgraph.mockup.forms.anchor;fontSize=17;fontColor=#666666;align=left;spacingLeft=5;resizeWidth=1;whiteSpace=wrap;" vertex="1" parent="iJDcL9aii5cb_pIzs1nn-20">
          <mxGeometry width="255" height="20" relative="1" as="geometry">
            <mxPoint y="50" as="offset" />
          </mxGeometry>
        </mxCell>
        <mxCell id="iJDcL9aii5cb_pIzs1nn-24" value="Juan Herbst" style="strokeWidth=1;shadow=0;dashed=0;align=center;html=1;shape=mxgraph.mockup.forms.rrect;rSize=0;fontSize=17;fontColor=#666666;align=left;spacingLeft=5;fillColor=#ddeeff;strokeColor=none;resizeWidth=1;whiteSpace=wrap;" vertex="1" parent="iJDcL9aii5cb_pIzs1nn-20">
          <mxGeometry width="255" height="20" relative="1" as="geometry">
            <mxPoint y="70" as="offset" />
          </mxGeometry>
        </mxCell>
        <mxCell id="iJDcL9aii5cb_pIzs1nn-25" value="" style="strokeWidth=1;shadow=0;dashed=0;align=center;html=1;shape=mxgraph.mockup.forms.anchor;fontSize=17;fontColor=#666666;align=left;spacingLeft=5;resizeWidth=1;whiteSpace=wrap;" vertex="1" parent="iJDcL9aii5cb_pIzs1nn-20">
          <mxGeometry width="255" height="20" relative="1" as="geometry">
            <mxPoint y="90" as="offset" />
          </mxGeometry>
        </mxCell>
        <mxCell id="iJDcL9aii5cb_pIzs1nn-110" value="" style="endArrow=classic;html=1;rounded=0;entryX=1;entryY=0.312;entryDx=0;entryDy=0;entryPerimeter=0;strokeWidth=4;fillColor=#f8cecc;strokeColor=#b85450;dashed=1;" edge="1" parent="iJDcL9aii5cb_pIzs1nn-7" target="iJDcL9aii5cb_pIzs1nn-20">
          <mxGeometry width="50" height="50" relative="1" as="geometry">
            <mxPoint x="460" y="150" as="sourcePoint" />
            <mxPoint x="510" y="100" as="targetPoint" />
            <Array as="points">
              <mxPoint x="550" y="200" />
            </Array>
          </mxGeometry>
        </mxCell>
        <mxCell id="iJDcL9aii5cb_pIzs1nn-112" value="GET Candidates by Category" style="shape=note;whiteSpace=wrap;html=1;backgroundOutline=1;darkOpacity=0.05;fillColor=#fff2cc;strokeColor=#d6b656;" vertex="1" parent="iJDcL9aii5cb_pIzs1nn-7">
          <mxGeometry x="80" y="240" width="100" height="130" as="geometry" />
        </mxCell>
        <mxCell id="iJDcL9aii5cb_pIzs1nn-26" value="" style="strokeWidth=1;shadow=0;dashed=0;align=center;html=1;shape=mxgraph.mockup.containers.browserWindow;rSize=0;strokeColor=#666666;mainText=,;recursiveResize=0;rounded=0;labelBackgroundColor=none;fontFamily=Verdana;fontSize=12" vertex="1" parent="1">
          <mxGeometry x="1650" y="480" width="580" height="600" as="geometry" />
        </mxCell>
        <mxCell id="iJDcL9aii5cb_pIzs1nn-27" value="Crisp.nz" style="strokeWidth=1;shadow=0;dashed=0;align=center;html=1;shape=mxgraph.mockup.containers.anchor;fontSize=17;fontColor=#666666;align=left;" vertex="1" parent="iJDcL9aii5cb_pIzs1nn-26">
          <mxGeometry x="60" y="12" width="110" height="26" as="geometry" />
        </mxCell>
        <mxCell id="iJDcL9aii5cb_pIzs1nn-28" value="https://www.crisp.nz/recruitment/candidates" style="strokeWidth=1;shadow=0;dashed=0;align=center;html=1;shape=mxgraph.mockup.containers.anchor;rSize=0;fontSize=17;fontColor=#666666;align=left;" vertex="1" parent="iJDcL9aii5cb_pIzs1nn-26">
          <mxGeometry x="130" y="60" width="250" height="26" as="geometry" />
        </mxCell>
        <mxCell id="iJDcL9aii5cb_pIzs1nn-38" value="Name" style="text;html=1;points=[];align=left;verticalAlign=top;spacingTop=-4;fontSize=15;fontFamily=Verdana" vertex="1" parent="iJDcL9aii5cb_pIzs1nn-26">
          <mxGeometry x="40" y="130" width="170" height="30" as="geometry" />
        </mxCell>
        <mxCell id="iJDcL9aii5cb_pIzs1nn-39" value="readonly name here" style="strokeWidth=1;shadow=0;dashed=0;align=center;html=1;shape=mxgraph.mockup.text.textBox;fontColor=#666666;align=left;fontSize=17;spacingLeft=4;spacingTop=-3;whiteSpace=wrap;strokeColor=#666666;mainText=" vertex="1" parent="iJDcL9aii5cb_pIzs1nn-26">
          <mxGeometry x="140" y="130" width="200" height="30" as="geometry" />
        </mxCell>
        <mxCell id="iJDcL9aii5cb_pIzs1nn-40" value="Lastname" style="text;html=1;points=[];align=left;verticalAlign=top;spacingTop=-4;fontSize=15;fontFamily=Verdana" vertex="1" parent="iJDcL9aii5cb_pIzs1nn-26">
          <mxGeometry x="20" y="180" width="170" height="30" as="geometry" />
        </mxCell>
        <mxCell id="iJDcL9aii5cb_pIzs1nn-41" value="readonly lastname here" style="strokeWidth=1;shadow=0;dashed=0;align=center;html=1;shape=mxgraph.mockup.text.textBox;fontColor=#666666;align=left;fontSize=17;spacingLeft=4;spacingTop=-3;whiteSpace=wrap;strokeColor=#666666;mainText=" vertex="1" parent="iJDcL9aii5cb_pIzs1nn-26">
          <mxGeometry x="140" y="180" width="200" height="30" as="geometry" />
        </mxCell>
        <mxCell id="iJDcL9aii5cb_pIzs1nn-42" value="DOB" style="text;html=1;points=[];align=left;verticalAlign=top;spacingTop=-4;fontSize=15;fontFamily=Verdana" vertex="1" parent="iJDcL9aii5cb_pIzs1nn-26">
          <mxGeometry x="60" y="230" width="170" height="30" as="geometry" />
        </mxCell>
        <mxCell id="iJDcL9aii5cb_pIzs1nn-98" value="email" style="text;html=1;points=[];align=left;verticalAlign=top;spacingTop=-4;fontSize=15;fontFamily=Verdana" vertex="1" parent="iJDcL9aii5cb_pIzs1nn-26">
          <mxGeometry x="50" y="280" width="170" height="30" as="geometry" />
        </mxCell>
        <mxCell id="iJDcL9aii5cb_pIzs1nn-99" value="read only email here" style="strokeWidth=1;shadow=0;dashed=0;align=center;html=1;shape=mxgraph.mockup.text.textBox;fontColor=#666666;align=left;fontSize=17;spacingLeft=4;spacingTop=-3;whiteSpace=wrap;strokeColor=#666666;mainText=" vertex="1" parent="iJDcL9aii5cb_pIzs1nn-26">
          <mxGeometry x="137" y="280" width="200" height="30" as="geometry" />
        </mxCell>
        <mxCell id="iJDcL9aii5cb_pIzs1nn-100" value="Profile Picture" style="shape=image;verticalLabelPosition=bottom;labelBackgroundColor=default;verticalAlign=top;aspect=fixed;imageAspect=0;image=data:image/png,iVBORw0KGgoAAAANSUhEUgAAAOEAAADhCAMAAAAJbSJIAAAAn1BMVEX///8kHiAAAAD8/PwiHB4hHyAmICIkHyAiICEhGx35+fkeHB0cFRciHiAIAAAfGBoaFxgYDxLKyckVExTV1dULAAXo6OiDg4PBwMC2trbu7u7m5eWura7Ozc2amJlfX19samtXVVZPTU6goKAvLS4NCgxDQUKUkpMVFRV6eXqMi4sxLzA6NzhycXK9vL1nZWazr7A0LC9HRkcoKChSU1IHXtGsAAAMCUlEQVR4nO1daXfiOgwNNs6+ElIgYaeBLnSD9/9/27ND25m2LLHkhM45vjNfOnOoubEtydK1YhgaGhoaGhoaGhoaGhoaGhoaGhoaGhoaGhoaGv8QaPW33r/+s3CLfm84Gq8ExqNhr1+41/5KOPyZnJvJ+OFlnZEKYVZmWRYefkjWL5tx/+aK3xIFQTHvTWe3JSGlHzmdn+hGfhKS9PZl1cvFJ+i/tWbz3mCZkDL1PNu2ux3zCEP+j2bAWBxlxF8+9P6pVVuMZyVJ/C5nEVhBEFjH+IlZNE1T/J/p+PxpvIzFiv0HZrJYrUlYsZNDNyVkJ0j+7sl0h7MkjBmflqPr8iyYzSKSvAx/7STyL1Zs9uQwe/L8OKxArFey39xUi/WXMeVfpz8jifzi/AmnJC/9XxgN9P4jgM13FDaLyaJ3bUJ/UPmx3pL4augdEPhkMfkt88gJ8vXpd0Fb7wxiMuv/Eoo3cz5/ANt5AcyOydP1YzpquNM07QCN50Uk/opeNZzjI0+2xGONsKsQkPV1zap7T2KbNcmQm9XBtYIcvnZ6+6w5cp/I3npXilbpA/FaIMjjHLK5CsNiTeygDYbdrkWWbRtVlxojErdB7x0+GRrtRqpihdotMuxEZNqqTXVnhDVpQo+AkXlrNpUaN9ukVXYHZOu8rVnsM7+ZEOY8zHTfb8dt9O68TnANiiy+mzRPjxpDciw12A4cYVKbnsUR6V5lAisEjDw3vRdfeRxzNYKdwPY4xQZBjecrLtF3koJicyt1SLrqj7pyYIxMmkupTkIeap9KYLdG0Sv7zdCjRt+JrszugMAumlmn+e3vINix48dGlqm7vDtRQ2obAUsX6n2Ga9yTdkPtswgHqglSY0xYq8el82DkVTXFPgnsX8TQZKFig+p6bZ7o6yDau+rMDd/U8/IXTeAB5ZMygoZIyrR8oq+BgIzUGdSb5NrR6BEwO75R5veXSitnimB76UwNPeEofoWj/4YgEOtUCcH8N67RCl6cq6BoPJXXZnIKrLxHsxMFbNJRWB40lR6+AoItEwtbtfYUVicssyPkDMpo+kvkaZhW8agiho6fCF1iGGaJr2xno40NdWP0FJr8T9cPyX42mI5Hw+fx9H6xJ5nfsRj+4XkMSdCYomugZteMMn82/iKZdfvjhR/GeIYsXOEo5hH+XO+Q7biy6tQ9lI/ey2TF6pagfzvz9i44shEf3IQ4o8DsgCw/Mpw/v8jzmjgmKsEcWHwSEcYmt5HriJX7M6aAT+arhS1jOW8u2GFQYxV6KE/YJfPcOP0FhFImnxMkRTKGEuTYOyf1vTVge3zwy893TDyGkTw4j3CCI9zjje16ap+JhzKqDFHKWKJSF/62oDUyt0L5dxsjGNrpAkqwTzDjxrf1FSLF3mMMuuMDixTA6HSQIraHFxe1B+KzeOchxDnJA4if4doewsyQSf17TUJAhgl/nVuAw+CfeCYmdFCbkankwpmGiC1BhtIEBcUZXLddFRakGFJUMsifAxgaNyVcmG6XsvUvahQhnKEDSmeMQ+BJldvEcAMY8CEEm1MGyp0u4AGjcwcJFd0MnHW207m86s0l8EWarUD+aUqgtpvHh/LniyE4SRp4KSzJl5dwc0rkb6AMEvCmSGE5Pmo8wTcGwOlvwcmiAPA8Dwx78Eg/2sltDG67CThH6gB1BJS6e/iJm0jtDO7KRhl4TyRPwDiYGvOUQY2NXFjDGd4nYPFTCC+xjzMbylB6I+7gWTACr7BP4HqPaCk3VJ7CvSHANX3AJeA57HhyLqqPsGpbeLGE3oJPpIHk0hnDw2AfnFPg2IF9lKzCZoDwvXMEwxl4XLuUMzVLuKFJ7hElvTmYIYvl1k4AL38lmLosnGHHeZM5XuSI02+CUfLMwdGw2U1kSjQIU9rxXxAMF+DdYXZCmZxiD6EvkY2BvwAe70seoMYhnKHD4ATdFE6wE8oUvDcYgQmpnwr+jgKTZZfKLMCPvx1g8vKAEUaHLBV7Iw7b/FkCc+x8BgYphqGMm5phpHr+DsqQrmOEjFUqmFpiql3CbIMIopwUf7IyUsUtSkQDFoBsUNIWfkKsb2keUQyBZWdq3KKkUtFaguEexdCsrpbLA1lU5wfT+sAxFHo6CLY4/ZAkQ0Rt1DIhLlHI5XEaT0eG4S2GIYe3lV6lrvsY4RhKzeEjkiEjsl7fNR4yE9eJiVua+tgiGQZBKCPeFVK+CXGQSmQpb7GMsSre6FYmp+hS10M+1Mrj12c4Q8U0FaRkPJQuU5yCriMZtT2laIZm+FRfbWLMMws9olTkjTo9fSC7ryv8pE+Yc+EnQxnxAF77LBq4kXmdOeRm5kXJ9VSpE/AYq/nkDIOOlS1vagxarEsl1xOkGkogirF/o5vYl4ObkZequa9CJhIM+6GKNpbcgXfJ0/mS0M0TwWj2/obUsTRX0ojUFL8k8aYHe/P9+Yqf3WlSnm4zLAWr60tV9fbqrqt5YTktfjTrED8VmzLrOIquVJlyWX1joe5OpWezLHkZfV+s+WhWJo6lrimoZK79Qd2NPMviqzAJw+XgdVLklFK3mLwOdiQUD1Hd1U27lNPSjdQ3RIxS8okwiRR15P2ELalnx2W9jsCJ/LL8JJglydFG9AgwyVR7zhwlJtxmttP1M5LZ28PNNY7n0Xg1mG2tkPCZZCwwlazVaC8pkFj6SsZlHp+4xWbY/zl8Xgw3C0LKWM1ejORKwNR4UOER/ZAsp+8t1sQNoJ8VTLe/2YmriHhksqLdIQHrrzrvJjIhy1WdvVGsdmHCbGQvVGm5YI5qTmp2nbAc1Be49AdliDzjh9KaVlTpIiJvK1q3OT4VkmkXed0SoOJ5KKEWwOqGW8D9Y/r6FnoeTPVlmdLbUIjoYPxMs7RX8sq2Kg5f2cAmMSZILgjUfflkkAOa4tGqL3k+gC7VEFApeZJXDYi2hjtcd6P+Ons/dskA1j5iKL9MrZiscP2M+ac3RD6gYyBpee5I+/zysX+wjHCGopH9m3S04dkATSvly1RKVh4o62WcvxDJcxVES1c1NZFy+oG4kKekqxE1pkTu6E9g3XddmVp34JQjVe0a+Tp/TRyJDGO0Bo4soYwKvFLtS1N6pVe7x5+ZyV7n/MBNfWsae4Xilun9NK6dCCc5dOh5UmvDWx1/X6h9Q5O4ws7qdiwWV1iAQ/fqXQ0KPK+Jd97077xaffC6QDtTYV0rhnLQ3ZqOweWhca23EzhQlVkljwgvB1BWAJTPXB7+WdSkzptUs1LvIAa5rI+wGFk11n16SjoXbswHJthVHHC5zBaIoLchgqI2fOEJm51a/VNOD+Fuo7PGJgjiHW3shUyu4a4vvYbB2aJsOL2gNTM9VkK7btRDceHCNW4XVr2rtmcfIuNrpNlXh6zO7xNfRiZ0DOJlD+ceYtUdosk5PN9NwoTc4f6B2ZkDqXPX9FuKqFGUJ72iibtG9oHiTBmKwFoLyEAcpU5HNokCK0CNh6xz1CcF4tTSNEORSt2eauZkiv4b+C/guvv46FE4gGVH5HEyYxTJizyPoer/c3QAeAcqyS+wO2FsEHeqv+G+tI74fVRML4UeOaJ6s0Q0pWqP5HvnyGs4o/8U/frL2B0pojDv0VVnBSbHDoot7UKB4RFln0eUvt9q86N1jBXDj2XSoOtv5jQIbPGqOZWW/MdmZ6iGjLJYfXPKzC7/U+yofjT1tkuFu+Dy8N+EdlZs52oDYuEyvmZPgW12oMM//dX1hJ/rmXI7TkWQ/6V62ZqrMKrM25DYf5yy6TSwRei33uyOr3yI86OXf5aQ6WTqPOEXLMuPF7GYuL4CEHyI6/kSDUpFL0X4Bmrk6z9paO4M232B7fNncGqmOzUvDPgOvhmK/YfopRs1M8hp3LxfTTZN/7GOehyIIvWqDc9i2P07DN67HgVxBL8NXwPv9RJZMacKPBwm0feaJCjqJbFXBTS4DBcEh40YBU1UEL6gfxfbdkDafou0yCuKJeo09GbAv9GPUxY18/K6M6CGy49woorXAorHVOrquxpQY+En25aWTr4jyl9dVwP3ZNGSi+ILZjFtZ6gvo25eWosxqEFb2Q7fBm22QKKhoaGhoaGhoaGhoaGhoaGhoaGhoaGhoaGhoWH8D0pG0UNR1fnpAAAAAElFTkSuQmCC;" vertex="1" parent="iJDcL9aii5cb_pIzs1nn-26">
          <mxGeometry x="380" y="120" width="100" height="100" as="geometry" />
        </mxCell>
        <mxCell id="iJDcL9aii5cb_pIzs1nn-101" value="CV" style="shape=image;verticalLabelPosition=bottom;labelBackgroundColor=default;verticalAlign=top;aspect=fixed;imageAspect=0;image=data:image/jpeg,/9j/4AAQSkZJRgABAQAAAQABAAD/2wCEAAkGBxAPEBAPEA8VDQ4QEBcQEBAPFRAPEA8QFRUaFhUWFhYYKCghGB0oGxcVITEhJSkrLi4uFyAzODMtNygtLisBCgoKDg0OGhAQGi0gICUuLS0tLTcvKy0tKzctKy0tMi0rLS8tLystLy0tLS4tLS0vLS0tKzUtLS0tLi0tLS0tLv/AABEIAOEA4QMBEQACEQEDEQH/xAAcAAACAgMBAQAAAAAAAAAAAAAAAQQFAwYHAgj/xABLEAABAwICBAYNCgQGAgMAAAABAAIDBBEFEgYhMWEHE0FRkZMUFiIzU1Rxc4GSsrPRIzI1QnKCobHB0iRSdIMVJUNiosM0wggX4f/EABsBAQACAwEBAAAAAAAAAAAAAAABBAIDBQYH/8QAPhEBAAECAgYFCQgBBAMBAAAAAAECAwQRBRITITFRQVJhcbEGFCIyU4GRocEVIzM0QnLR8OEkYpKigrLxQ//aAAwDAQACEQMRAD8A7igEAgEAgEEesqOLA53HKOi/5BBF7Nfu6EB2a/d0IDs1+7oQHZr93QgOzX7uhAdmv3dCA7Nfu6EB2a/d0IDs1+7oQHZr93QgOzX7uhAjWv3dCDFHjBacsjdX8zdvQgtYZWvAc0hzTsI1oPaAQCAQCAQCAQY6idkTHSSPEcbRdz3kNa0c5J2KJmIjOWVFFVdUU0xnM9Cs7acP8ep+ui+Kw21vrQt/Z2L9lV/xkdtOH+PU/XRfFNtb60I+zsX7Kr/jI7acP8ep+ui+Kba31oPs7F+yq+El204f49T9dH8U21vrQfZ2L9lV8JHbVh/j1P1sfxTbW+tB9nYv2VXwlX4rpNQOMVq2A2eSbSxmwykc6bW31oPs/Feyq+EsPbJQ+OwdYz4ptaOtB9n4r2VXwku2Sh8dg6xnxTa0daEfZ+K9lV8JHbJQ+OwdYz4ptaOtB5hivZVfCR2yUPjsHWs+KbWjrQeYYr2dXwku2Wg8dg61nxTa0c4PMMT7Or4SO2Wg8dg61nxTa0c4R5jifZ1fCR2y0HjsHWx/FTtaOcHmOJ9nV8JHbNQeOwdaz4ptaOcHmWJ9nV8JHbNQeOwdbH8U2lHOEeZYn2dXwku2ag8dg62P4ptKOcHmWI9nV8JHbPQePQdbH8U2lHODzPEezq+Ejtnw/wAeg62P4ptKOcHmeI6lXwl4OM0U5bHHVwvlcbMayRheXbgFMV0zwljVhr1MZ1UTEdzLR1EkZLo9T2n5WI6mP3t5iVk0Nkw7EGTtzN1EanMOpzDzEIJaAQCAQCAQCCh07+jazzDlqv8A4dToaK/OWu+Hzw0XXFmX0ymnWPJvUZstnJcXvTWRsp5ji96nWRsu0uL3pmjZdryWb1ObGbfaRZvU5sZt9pZN6ZsdTtIs3qc2M0dryW71ObGaO0i3embGaO0i3epzY6na8lu9Tmx1O0i3embGaO15Ld6nNjNHaRZvU5sZonmRZvTNjNE83ks3qc2E255rrQQ/5nR+eH5Fb7Prw5mkZ/09cO51zcjmyjYO5fvYdvRt9CvvJCeBzHCWJ2SQbDyOHM4coQXWFYo2cFpGSVvzmH8xzhBYoBAIBAIBBQ6efRtb5hy1X/w5X9F/nLffD54iO1cWp9OtTxe7rFtzIuU5MZqIuTJjNSZgbQ6qpmuAc11RG1zSLhwLwCCOULZbj0o71XF1zTYrmJynVnwd7qcBwyNpfJSUsbAbFz4oWtBOzWQuvNu3HGIfO6Mbja5ypuVzPfKO/RjCqqMhlNTuadWenDGlp3OZyrHY2qo4Q2RpDHWas5rqz5Tn4S4vppo+7Dap0GYvjc3jIXna6MkjXvBBB8m9c67a2dWT2Wj8fGLs6/CeEx2u3QaOYeI2OdRUwGQFznRQjkFySQunFqjLhDxNWOxWtMRcq485YpNFMLnaQKSAjYTCGsI9LLKNlbnohMaQxlufXq9/+XLOEPQc4daeAukpHuynNrfC47ASNoPIfQd9O9Y1N8cHpdGaV859C5uqj5svA9QQVFVUNnhjqGtp8wbKxsgBztFwHbCpw1MTVOcNenL9y3apmiqY39E5dEupzYDhbDZ9JSMO0B0cDTb0hXNnb5Q83GLxc8K6p98ta0+w3DWYdUuggpWTBrcjomwCQHONhbr2LXdpoiicohd0ffxNWIpiuqqY7ZnJw8lUHrMyupY5ldGOsV1KM1roIf8ANKPz/wChVizHpQ4ukKvuq30HUR5mkHlCvPLvOHjPC2+stvGfK3V+VkESqpiCHtJZI3W1w2j4jcgucIxQTDI/uJmjum8jh/M3cgs0AgEAgEFBp79GVvmHLVe/Dle0Z+bt98PnaI7VxqofSrVXF6LlGTOankuU5MZqIuU5MZqT9Hj/ABlJ/Uxe8as7celHeqYyr7i5+2fB2fhZ+i5vOR+8C6WJ/Dl4vQk5YynunwaZwJiXsqoIv2PxFnn6nG525PTbP+Kr4SJ1p5Ov5Q1UTapj9We7uynP6M3DmRxtH/Nxcl/Jmbb9Vli+MNXk9MxRc74+rfdKvomq/onewrNz8Oe5xMJ+bo/d9Xz9g+LzUczZ4HmN7TflyvHK1w5QeZc2iqaZzh7XEWbd+iaK4zj+8H0Li8TMQw2UWu2opeMYDrs4szs6HW6F06oiuh4ezVOHxET1Z+uTmfAcf4yp/pv+xqq4X1pd7T052qO/6SvuE/Q+sxCohkpmNcxkORxc9rDmzE7D5Vsv2qq5iYUtF461h6Kqa+mXO8e0HrqGE1FQxjYg4NJa9rzd2zUFXqs1UxnLsWNJWb1epRO/uazda8lzMrpkjMrqUZldEZrTQM/5rR+f/Qq1a4w4ePq9Ct9FlW3nSwFt+yGc0uYfeaPggzVVOgqKqnIIc05HtN2uG1p/UbkF1g+KCYFjxkmb85vI4fzN3ILNAIBAINf0++jK3zDlrvepK7o781b74fOcZ2rjzD6Lbq4mXJkymoi5MmM1ESpyYzUn6On+MpP6mL3jVnbj0oVcXV9xX+2fB9IYpVQQxmSpeyOEEAultkBJsL33rrVTERvfP7VFddWVuJmexRVWnOFU7CW1MbgNYjpxnc47gNV/LZa5vURHFbo0dirlWU0z3y4npnpG7Eqp1QW5GAcXEzaWRi9r7zck+VUblevVm9XgsLGFs6nGeM97uelf0TVf0Tvdq/c/DnueRwn5qj931fNxK5r281PpjDIzS4bE2TUYKIZ78mSLXfoXTp9Gj3PC3atriJmOmr6uX8BZ/jKn+l/7GqthvWl3NNz91T3/AEluunGnowqaOE0xn4yPjMwfkt3RFrWPMt9y7qTlk5eDwE4mmaoqyyc/004SG4lSGlFKYSXtfnLw75p2WsFouXtanLJ1cJo2bF3X1s3Pbqu6uZXUozF0RmV0RmtdAfpWj8/+hVm1xhxcd6lb6MVt596wD59R9pv5FBayx3QVdVToKiphc1wew5JGG7Xc247ig2DCMRE7NmWRuqRnKD8EE9AIBBr/AAgfRlb5hy13fUlc0f8AmbffD5ujdtXKmHv7dXF6LlGTOaiJTJjNTzdTkx1lho6f4yk/qoveNWdHrQrYqfua+6fB2zhe+ip/ORe8Cv4j1JeT0R+ap7p8HACVz3sMyJRhMvqCtoBVUTqYuLBNT8WXAXLQ5lrgLqTGdOTwtFzZ3YrjonNq2j/BbR0krZnvfVvYczGyBrYw4bCWjb6TZaqLFNM58V7EaWvXadWIimEfhd0rZT0z6GN4dU1AyyAazFCdubmLhqA5iTzJfuZRknReFmu5FyY3R85avwFf+ZU/0v8A2NWvDcZXtNT93T3/AELh1/8AMpv6f/3cmI4wx0NP3dXe5pdV3YzK6IzK6lGYQCIW2gP0rR+f/Qqxa4w42O/DrfRituAjvp3a8sjo76zkJbc+hB4EM42VMnpId+aBumqhte2Uf72hp6W2QYJK8bJYzF/uHds6RrHQgxZnMc2eEhzhzHVIzlb8EG00NW2aNsjDqO0coPKCgkIBBr3CF9F13mHLXd9SVvA/mKO981xnauZMPdW6uL1dQzzK6McyupRMvdNUOieyRhs+N4e06jZzTcGx3hTG6c2uuIqpmmeEr3GdN8QrIXU9ROJInEEtEcTblpuNbQDtWyq7VVGUqVnAWLNevRGU98tcuta5mV1LGZbczhLxZoAFSAAAB8lBsH3Vu21fNzp0Zhp36vzlHquEPFpQWurXNB8G2KM9LQD+Kib1c9LKnR+Gp3xR4tZkkLiXOJc5xuXOJJJO0knata3GURlCxwDSGpw975KWQRPezI4lrH3bcG1nA8oCzpqmng037FF6IiuMy0g0hqcQe2Sqk417G5GkNYyzb32NA5SlVc1cUWcPbsxMURkq1i3BEEgEQEFtoD9K0fn/ANCrFrjDj478Ot9Gq24AQCAQJzAdoQV8+H2JdEcjuUfVd5Qg84VWGGXWMrXm0reQHke39UG3IBBSabUkk+H1cMTDJLJCWsaLAuPNrWNcZ0zEN+Grii9TVVwiXA+0HFvEn+tF8VS2NfJ6T7Tw/X+U/wAEdAcW8Sf60XxU7Grkx+07HX8SOgGL+JP9aL4qdjVyYzpOz1/F5/8Ar/F/EpPWi/cmxq5MZ0lZ63iR4P8AF/EZPWi/cp2NXJjOkbXW8WCbQfFWENdRvaXbAXR6+XnU7Krkx+0LXW8S7R8V8Uf68X7k2U8mP2hb63iXaNivij/Xi/cp2U8kefW+t4jtGxTxR/rxfuTZTyPPrfW8S7RsU8Uf68X7k2U8jz611vEdo2KeKP8AXi/cmyq5Hn1rreI7RsU8Uf68X7k2VXJHn1rreI7R8U8Uf68X7k2VXI8+tdbxHaPinijvXi/cmyq5J8+tdbxQanR6sieInwkSkgBgcx77nYLNJK11TFM6s8Vm3NVyjaU56vPhHxlkotF66fMYoC/IcrgHxhzTzFpNwsqY1uDC9d2OW0zjPhx3908EntIxPxR3rxfFZbKrk0efWut4jtIxPxR3rxfFNlVyPPrXW8V1oXojXw4hSyy0zmRslDnuLozYWOvUbrKiiYloxGJtV25iJ3u5qw5JIBAIBAIMU1O120ILXCpc8TTzXb6pI/RBLQCAQCAQCAQV+J/Pg84fYcg9WQKyBWQKyBWQFkCsgwVsvFxySfyRuf6rSf0WNU6tMy2Wbe0uU0c5iPjLlugEfG4gx7u6c1kkxJ5XkWufS9cjBeleznte70/VFvAVU07omaafdnn9G2Y3SmmxCkrIxYVEopagD6xfqa49H/EK7dp1LtNyOndLz+CuxiMDdw1z9ETXT2ZcY/vNtVlccArIFZArIBArIEgEAgEErAe8j7b/AGigsUAgEAgEAgEEDEvnwecPsOQe7IFZArIFZArICyBWQQMdZelqQNpp5B/wK13ozt1d0rWCnLE25/3U+MOc8GZ/jTvp329ZhXKwH4vuey8pI/0f/lHhLpNfSiXigR8yZkvpYbhdaunWy783irF6betl00zHxSLLNoFkCsgVkCQKyAQJAkAglYD3kfbf7RQWKAQCAQCAQCCBiPz6fzh9hyDJZAkBZAkCsgVkCsg8TR5mub/M0t6RZRMZxkyoq1aoq5S5FoNJxWIwNPKZIXeo4fmAuLhJmm9Ed76Dpuna4CuY7KvnH0l1CqqLVFPDyubJKfssaG/m8dC69VXpxT3vDW7X3Fy5y1Y+M5/RNstiqVkCQKyAsgVkCQKyBWQCCTgPeR9t/tFBYoBAIBAIBAIIOIfPp/OH2HIMqBWQJArIEgECQJBxrGP4PE5HDUIqoTD7DnCQ/g4hcO793fmeU5vo2E/1ejqaZ6aNX3xGX0b5SVPHYxNlN2U1GIxzZnva8/hZdKmrWxE5dEPKXbWx0TRnxrrz+ETDZlacQIEgVkCsgSBICyBWQJBIwHvI+2/2igsUAgEAgEAgEEHEO+U/nHe7cgzWQJAWQJAkCsgSBWQcu4UaPJVRy8k0Nj9qM2P4Ob0LkaQpyrirm9v5NXtbDVW+rPj/AJiVlwWQl3Zc7iXElkdzrJIBcfzat2j4n0qpU/KeuI2VqO2fp/LfbLovKFZAkCsgECsgSBWQKyAQZsB7yPtv9ooLFAIBAIBAIBBBr++U/nHe7cgkIFZArIEgSAsgVkCsg0HhYmZxdNHtlzueN0eWzr+UlvqrnaQmNWmOl6ryXor17lf6coj355/KM/igcF+KZJZaVxsJhxkfnGizh6W+yteAu5TNE9Kz5S4TXtU34/Tunun+J8XSrLqvGCyBIFZAkCsgSAQKyBWQZcB7yPtv9ooLFAIBAIBAIBBCru+U/nHe7cgkWQJAWQJArIFZArIEUHIa+U4rioY0ninScUy3JBHcuduuA4/eC41c+cX8uj6Pf2KY0Zo2ap9aIzn908I926Pcr8YopMOrS1pIdFIJYH/zMvdh/wDU+QrVcomxd3dHBbwl+3j8JnVwqjKqOU9P8x7nX8GxJlXBHOzY9uscrHjU5p8huu3buRcpiqHz7GYWvDXqrVfR846J96ZZZqxIBArIFZArIFZArIBB7wLvP33+0UFigEAgEAgEAghV3fKfzjvduQSrIFZArIFZArIBAkGr8IWMdi0jmNNpai8TLai1pHdu9A1eVwVXF3dS3lHGXa0FgvOMTFVXq0b5+kf3ko+CrCbCWscNvyMPkBvIR6co9BVfAW901y6XlNi85pw8fun6fWfevNOtHuzYM0Y/iYQXR88jfrR+nk3hWMVY2tO7jDmaF0j5pe1a/Uq49nKfd09jRtB9IuwpjFKSKaV1n31cTINQfbk5j/8Ai5+Ev7KrVq4S9NprRvndrXt+vTw7Y5fWP8uuDXrGsHWCNhXaeAFkCsgVkCQKyAsgSBWQe8C7z99/tFBYIBAIBAIBAIIVb3yn8473bkEuyBWQFkCQKyBWQKyDjOlFe/Eq/JF3Tc4p6cchF9b/AEm58gC4l+ub93Knuh9D0bh6dH4LWubpy1qv493DvdbwugZTQxQM+bGwNG88pO8m59K7FFEUUxTHQ8Hib9V+7Vdq4zOf97klZtDQNPtEC8urKZt37Z4mjW/ne0c/OOXbt287GYXP06PfD1WhNMRRlh787v0zy7J7OU9HcrdB9MhAG01S68GyKY3PFX+q7/bv5PJs1YXF6voV8Oa3pnQs3pm9Yj0umOfbHb497prXAgEEEEXBGsEHYQV1ni5iYnKRZEBArIFZAkCsgLIHgXefvv8AaKCwQCAQCAQCAQQq3vlP5x3u3IJqBWQKyBICyBWQapwiY32LSmNjrT1F42c7Wf6jug28rgqmMvbOjKOMu3oLA+cYjXqj0aN89/RH19yg4K8DuX1zxqbeKAHn1Z3j2R95V8BZ/wD0n3Op5SY7dGGp76vpH1+Do9l03kCsgwVVZFCM0srIhzyOaz81jVXTTxnJst2bl2cqKZq7omXMNN24ZKXTU1Q0VB1uZE174pjz3Gprt+w/iuVi4s1b6Z3+L2mh50hbiLd6idTomZiJj6zCo0d0pqaEhrHcZBtMD/m+Vp2sPk1blps4mu1ujfHJfx+irGM31RlV1o4+/n/d6+k4SahxtHSxtJ1AF0krifILXVidIVT6tLl0+TNimM67k/CI/l6Gk2NyfMpC0bqaX83KfOMTPCn5I+y9EUetd/7x9Hr/ABXH/Fz1LPip2mL5fJj5poTr/wDaQdJsZh1y0Rc3l+QlH4tNk84xNPGn5H2Vom7ut3cp/dHhK40d04iqpGwSxmmncbN15o3O22ubFp3HpW+zjKbk6sxlLnaQ0Dcw1ubturXpjj0THb2+5tllccArIDAu8/ff7ZQWCAQCAQCAQCCFW98p/OO925BNQCAQKyBWQeXkAEk2AFyTsAG1ExEzOUOL4vVSYxiIbFfK93FQ8zIW6y+3kzO6AuJcqnEXsofQsLao0Zgc6+MRnV2zPR9HR58cw/DYmU5maOKYGtij+UksOUhuwnnK6c3rVmmKc+DyNGBxuPuTdiifSnPOd0fP6Nfl0/nqCW4fQvlOwPkDngfdZqHpcq84yqrdbpzdSnyfs2Yzxd6KeyN3zn+GF2GY9Wd9mFGw7WteIvwiufQSom3irnGcmyMTobC/h0a892f/ALZR8mSn4M2uOaoq3yv5TG0A+s/MVMYCJ9arNhc8p6ojKzaiI7Z+kZLqk0Ew+PbCZjzyvc6/oFh+C3U4O1T0Zubd09jrn69XuiI/ymz6L0D4zH2JE1p5WMax4POHjWD6VsnD2pjLVhWo0rjKa9fa1TPbOcfCdzSca4OZWXfSScc0axHIQyUeR2w+myoXcBMb6JzekwnlJbr9HEU6s843x8OMfNWUmkuJYc4RTZnNH+lVhx1f7H7egkLXTiL1mcqvmuXdF4DHxr28onnTl844fKJbZhnCJSyWEzH0zue3GR9LdY9IVy3jrc+tucLEeTeJo32piuPhPz3fNslHi9NMLxVEcn2Xtv0bQrVN2irhMONeweItbrluY9yDjmG0cxjdJkZUcYziZGZRMXhwIAtrcNWsHkudS13aLdWWfHo5rOCxOKtRVFGc0ZTrRPq5ZfJdFb3NKyDzgfefvv8AbKCwQCAQCAQCAQQq3vlP5x3u3IJqAQCAQeXEAXJsBtJ1AImImd0NG4UMeEUIo43fKzi8lvqwbCPvHV5AVRxt7Vp1I4y9H5PYDaXfOK43U8O//HH4KDQvQuSqi7IfUPpYpLsDYhaSWMHX3XI0kcxvZV8NhZrjWmcnU0tpmjD3NjTRFdUb9/CJ7ufg3fDNCsPp7FtOJHj60xMpvuB1D0BXqMLao4Q85iNNY2/uqryjlG7w3/NfNaAAAA0DYBqA9CscHLmZmc5FkQVkBZAkCsgxzwMkaWvaJGna14Dh0FRMRMZSyorqonWpnKexrldoJh8tyITA48sLnNHqm7fwVavB2qujJ17Onsbb3TVrR2xE/Pj81NPwYQk9zVPA5nxsf+IstM6Pp6KnQo8qbsetbj3TMfyssC0NpsPc6pL3TyRsc4OcA0MAacxa0ctrjWVttYWiz6WeanjdNYjHRFiIimJmN3HPf0z3pcOMy8YQ9rbNy52NGuNriwXD790RnGrKL2NtmvOLtWe/+/3uV68Fb2cTTM788p55Zzwy3Z5c5y3Zr+ysOUx4H3n77/bKCwQCAQCAQCAQQq3vlP5x3u3IJqAQCCg0k0rgorR2NRVOsGU8Wt5J2Zv5R+PMFXvYim3u4zydPAaKu4r0/VojjVPD3c0JpliidiGKPA4sZ46SPVDEfqgj/UkJsATsJ1LHfFO0u/D+9KxMW7lyMLgY47prnjPPup8elzrDqWbGK85yflHcZM4bIoRqs30WaN5vzrm0U1Yi7verv3bWjMH6PRujtnt8ZdtggbGxsbGhrGNDWtGwNAsAu3EREZQ+d111V1TVVOczverKWIsgVkCsgVkCsgLIFZArIFZB5c0HURcHUQdYIQict8K2LBY2ua7M97WG7I3ZC1pu0jXbM6xYw2JPzRzBaosxE/3/AOrlWOrqpmMoiZ4zv7e3KOM8IjjPOVktqmxYH3r+4/2ygsEAgEAgEAgEEKt75T+cd7tyCagEGjad6adjE0tKc1SdT3juuJvsAHK832cn4KjicVqehRxej0Pobb/f391HRHP+I8WfQbRPsYdl1Xd1kndd33RhDttydrzyn0c95wuG1PTr9Zr0xpXbzsLG63G7d05fTlHvahp/pIa6cU8BLqeJ+VuXXx8x1XA5QDqHPt5lUxd/aVatPDxd3Qujowlqbt3dVMb/APbH93z8G/aD6Oigp7OANRLZ8x/lNtTAeYfmSr+GsbKjfxni8zpfSHnl70fVp3R/PvbGrLkhBy7hr0sq6DsKKjnNPLMZHyOa1jyWMytaO6B5XHoQZeBXSmqxCKrbVzmolhlYWOcGNIje3ZZgA+c09KDpSDnfDhXzU+HxPgmkp3mrY0uhe6NxbkebXbyah0IJfA5WSz4TFJNK+eQzTAvlc6R5AkIAu7XsQbtZAAIOC6D43VyaQiB9XNJB2VVt4p8sjo8rWy5RlJtYWFuawQd4QKyBWQIIMOB96/uP9soLBAIBAIBAIBBCre+U/nHe7cgmoKXTDFzRUcs7dcmpkd9YzvNgT5NvoWnEXNnbmp0NF4SMViabdXDjPdH9yaNwY4Bx8jq6a72xvIjz6y+ba55vttfbzk8yoYKzrTtKnpPKDH7KiMNb3TMb+yOiPf4d6Vwg6Zgh9HSv52zzNOoDljYefnPo8meLxX6KPe0aE0NOcYi/H7Y+s/SPey8HOiJjy1tQzK+38PE4WLAfruB2HmHIPLqnB4bV9Or3MNO6WivPDWZ3fqnn2R2c+boi6LyoQCDhvCC/s3SehpfnMhdTsI2i+Yzv/wCOUehBh4FpTTY1XUZ1B7JWD7UE3c/8XPQb/wAKOnX+ERRsha2SsnvxYfcsjY22Z7gCCdoAHKfIg45pRp3W4jRtp62Ia5m1EEzI3Qte1rXNcNep47oax6VI6pwO1ccGAtnlcGRRSVEj3HY1rZHElQNMr+FvFaiSaShpmspIRncDC+ofHHyOmcDZl7HZa1jrNroOi8GmnDcXhfnY2GrgIEzGE5HNd82Rl9YBsRY7CNpQcQw7Gv8AD8ZmqxGZnRVVUGRj68jzLGweTM4bNfMpG36O8Ltc2sZFiEcYgfIIpGtidBJTFxADrON7C4uDrtr8sDpunelkWE0vHvbxsr3cXBFfLxklr6zyNA1k/FBylvCpjcPE1U9NGaOZ3cAwyRRytG0Ryk7bXsTf0oO1YLicdZTw1UJvFPG2Rt/nC+0HeDcHyIMuB96/uP8AbKCwQCAQCAQCAQQq3vlP5x3u3IJqCvx7B462B1PLcNcQQ5ps5rgbgha7tuLlOrK1g8XXhLsXaOPi0yq0VxWOBtFT1MXYgza25oJXhzi45yL328hCp1Ye9FOpRMZPQW9KaOruziL1urX3cqojKMt3D5pmi/B7FTObNUuFTK03YwC0UZ57H5x3nVuWVjBU0TnVvlX0j5QXL9M27MatM8Z6Z/j+727q886EAgEHzhhOkNM3SSbEauXiqdlTUOa4NkluWtdBELMBOyx2ciD1g+NwDSdlVTvz01TW5WvyvjzCoYGHuXAEfKO5RyIHw4yOlxkxE2DaeGJu7OXEnpd+CDd+HmijZhlIGsDRDVMjjt9RnFPFhu1DoQazFUuj0OcGm3GVZjdva6p1j8EG0cBNCw4VUEtB4+okbJf6zQxrADutfpKDSeA15ixgxA9y6mmjO8Mc0i/q/igj6DQtfpK0OGYCuq3gHZmbxxafQQCgmf8AyDpWsxCKRos6aiu/e5j3AE+ggehSMfDTXPmfhjHE6sNZL9+a2Y+XuAoGDTDhIp8Qw5mHsozT8UYjHIZY3NZxWrU0DlbcelSOl8B0pfg8QJuGVEzW/Zz5vzcVA3XA+9f3H+2UFggEAgEAgEAghVvfKfzjvduQTUAgEAgEAgEFfpFXimpKqoOyGnkl9VhIH4IOA8EOh0GLSVZrA98cLIyMj3RkyyF17kbdTT0qRG4ScAiwXEoOxg5sLWRVTA9xe7OyQl2s/Zb0oLLh2onCup61ne6qlZkeNnGxknb9lzD0qBn4UOEGlxShpIIA/juME9QHNc0QlrC3Lc6nXc7aLiw260FjgWFPrNEZYowXyMllmY0ay4xT5yBvIBQQeCrT2lw+grIKhxa9rnT04AJ47MwDICNhzN5eR24oDgAwqSStnrXD5OGExZuR08rmuIHkaCT9oINYwTGmUGOOrJAXQxV1RxmUZiI5HyRlwHLbMCgmcI+NMxzFIWUeZ8ZYyjhcWuaXvc8lz8p1gd1y21NJQbHw94A6MUNSwEwsh7De4a8hbYxX5r3ePKEGw4BwkYK+ljdUhlPUNjDZYjAXnOBYlha05gdoQdAwWphnghnpwBBMxssdmhncvFxdo2FB6wTvX9x/tlBYIBAIBAIBAIIVb3yn8473bkE1AIBAIBAIBBCxnDIqyCWmmBdDM3JIGksJbe9rjWEEDRbRSjwtkjKSMxtlcHvzPfISQLDW66DBpVoTQ4o6N9XE6R0TSxhY98fcuIJBykX2IJGKaK0dVSR0M8XGwRNa2PM53GR5G5Wua/5wdbVflub7UFLRcFuFRQTU4gc9s+XjJHyPMxDHB7QHixaMwBsLXtrQbDo5gFPh0ApqZpZCHOeA5zpDmdrOt2tBreLcFGE1Mzp3Qvhc52Z7YJHRRuPKco1C/wDtsg2vB8Jgo4W09NE2CFmxrec7STtJPKTrQa7TcGmFRvqJOxy91Sx8cwkkke1zZHh7rAnuTmaCCNYsg9aMcHeHYbKZ4InOmsQ2SZ5ldGDtDL6m+XbvQbHX0UVRG+GaNs0MgyvjkAc1w3goNJdwP4OX5uJlAvfIJ5gz87/ig3TDaCKmijghZxcMTQyNgJOVo2C51oMeCd6/uP8AbKCwQCAQCAQCAQV+MwSvYDA4NmYczCQCNYIOo7ig1Zzcd8M3qo0Cy474ZvVRoDLjvhm9VGgMuO+Gb1UaAy474ZvVRoDLjvhm9VGgMuO+Gb1UaAy474ZvVRoDLjvhm9VGgMuO+Gb1UaAy474ZvVRoDLjvhm9VGgMuO+Gb1UaAy474ZvVRoDLjvhm9VGgMuO+Gb1UaAy474ZvVRoDLjvhm9VEgMuO+Fb1USD3G3HLi8rbcvyUQQbZhdO6OJrXm79ZcRszE3KCWgEAgEAgEAgEAgEAgEAgEAgEAgEAgEAgEAgEAgEAgEAgEH//Z;" vertex="1" parent="iJDcL9aii5cb_pIzs1nn-26">
          <mxGeometry x="370" y="270" width="110" height="110" as="geometry" />
        </mxCell>
        <mxCell id="iJDcL9aii5cb_pIzs1nn-102" value="readonly dob here" style="strokeWidth=1;shadow=0;dashed=0;align=center;html=1;shape=mxgraph.mockup.text.textBox;fontColor=#666666;align=left;fontSize=17;spacingLeft=4;spacingTop=-3;whiteSpace=wrap;strokeColor=#666666;mainText=" vertex="1" parent="iJDcL9aii5cb_pIzs1nn-26">
          <mxGeometry x="137" y="230" width="200" height="30" as="geometry" />
        </mxCell>
        <mxCell id="iJDcL9aii5cb_pIzs1nn-103" value="Notes" style="text;html=1;points=[];align=left;verticalAlign=top;spacingTop=-4;fontSize=15;fontFamily=Verdana" vertex="1" parent="iJDcL9aii5cb_pIzs1nn-26">
          <mxGeometry x="10" y="440" width="170" height="30" as="geometry" />
        </mxCell>
        <mxCell id="iJDcL9aii5cb_pIzs1nn-104" value="recruiter add notes about the candidate" style="strokeWidth=1;shadow=0;dashed=0;align=center;html=1;shape=mxgraph.mockup.text.textBox;fontColor=#666666;align=left;fontSize=17;spacingLeft=4;spacingTop=-3;whiteSpace=wrap;strokeColor=#666666;mainText=" vertex="1" parent="iJDcL9aii5cb_pIzs1nn-26">
          <mxGeometry x="140" y="420" width="350" height="70" as="geometry" />
        </mxCell>
        <mxCell id="iJDcL9aii5cb_pIzs1nn-106" value="Save" style="strokeWidth=1;shadow=0;dashed=0;align=center;html=1;shape=mxgraph.mockup.buttons.button;strokeColor=#666666;mainText=;buttonStyle=round;fontSize=17;fontStyle=0;fillColor=none;whiteSpace=wrap;rounded=0;labelBackgroundColor=none;" vertex="1" parent="iJDcL9aii5cb_pIzs1nn-26">
          <mxGeometry x="300" y="540" width="190" height="30" as="geometry" />
        </mxCell>
        <mxCell id="iJDcL9aii5cb_pIzs1nn-107" value="Cancel" style="strokeWidth=1;shadow=0;dashed=0;align=center;html=1;shape=mxgraph.mockup.buttons.button;strokeColor=#666666;mainText=;buttonStyle=round;fontSize=17;fontStyle=0;fillColor=none;whiteSpace=wrap;rounded=0;labelBackgroundColor=none;" vertex="1" parent="iJDcL9aii5cb_pIzs1nn-26">
          <mxGeometry x="90" y="540" width="190" height="30" as="geometry" />
        </mxCell>
        <mxCell id="iJDcL9aii5cb_pIzs1nn-108" value="" style="endArrow=classic;html=1;rounded=0;exitX=1.004;exitY=0.45;exitDx=0;exitDy=0;exitPerimeter=0;strokeWidth=4;dashed=1;fillColor=#f8cecc;strokeColor=#b85450;" edge="1" parent="1" source="iJDcL9aii5cb_pIzs1nn-24">
          <mxGeometry width="50" height="50" relative="1" as="geometry">
            <mxPoint x="1700" y="840" as="sourcePoint" />
            <mxPoint x="1750" y="790" as="targetPoint" />
          </mxGeometry>
        </mxCell>
        <mxCell id="iJDcL9aii5cb_pIzs1nn-109" value="double click" style="edgeLabel;html=1;align=center;verticalAlign=middle;resizable=0;points=[];" vertex="1" connectable="0" parent="iJDcL9aii5cb_pIzs1nn-108">
          <mxGeometry x="0.0133" relative="1" as="geometry">
            <mxPoint as="offset" />
          </mxGeometry>
        </mxCell>
        <mxCell id="iJDcL9aii5cb_pIzs1nn-111" value="GET categories" style="shape=note;whiteSpace=wrap;html=1;backgroundOutline=1;darkOpacity=0.05;fillColor=#fff2cc;strokeColor=#d6b656;" vertex="1" parent="1">
          <mxGeometry x="1430" y="380" width="100" height="130" as="geometry" />
        </mxCell>
        <mxCell id="iJDcL9aii5cb_pIzs1nn-113" value="GET Candidate by ID" style="shape=note;whiteSpace=wrap;html=1;backgroundOutline=1;darkOpacity=0.05;fillColor=#fff2cc;strokeColor=#d6b656;" vertex="1" parent="1">
          <mxGeometry x="2070" y="380" width="100" height="130" as="geometry" />
        </mxCell>
        <mxCell id="iJDcL9aii5cb_pIzs1nn-114" value="POST Candidate Notes (Recruiter ID, Candidate ID and Notes)&amp;nbsp;" style="shape=note;whiteSpace=wrap;html=1;backgroundOutline=1;darkOpacity=0.05;fillColor=#fff2cc;strokeColor=#d6b656;" vertex="1" parent="1">
          <mxGeometry x="2090" y="1020" width="100" height="130" as="geometry" />
        </mxCell>
      </root>
    </mxGraphModel>
  </diagram>
</mxfile>
